<svg xmlns="http://www.w3.org/2000/svg" xmlns:xlink="http://www.w3.org/1999/xlink" width="851" zoomAndPan="magnify" viewBox="0 0 638.25 236.249991" height="315" preserveAspectRatio="xMidYMid meet" version="1.0"><defs><g/><clipPath id="28bbf87386"><path d="M 58 53.46875 L 180 53.46875 L 180 92 L 58 92 Z M 58 53.46875 " clip-rule="nonzero"/></clipPath><clipPath id="e88e3e2b1a"><path d="M 26 127 L 63 127 L 63 176.824219 L 26 176.824219 Z M 26 127 " clip-rule="nonzero"/></clipPath><clipPath id="687c8c3d0c"><path d="M 24.1875 86 L 56 86 L 56 100 L 24.1875 100 Z M 24.1875 86 " clip-rule="nonzero"/></clipPath></defs><g fill="#fdc221" fill-opacity="1"><g transform="translate(189.217983, 156.976721)"><g><path d="M 58.265625 -64.375 C 58.691406 -64.3125 58.875 -64.046875 58.8125 -63.578125 C 58.75 -63.117188 58.503906 -62.890625 58.078125 -62.890625 L 57.796875 -62.890625 C 57.921875 -62.765625 57.953125 -62.582031 57.890625 -62.34375 C 56.285156 -55.425781 54.847656 -48.460938 53.578125 -41.453125 C 52.316406 -34.441406 50.972656 -27.445312 49.546875 -20.46875 C 48.128906 -13.488281 46.375 -6.570312 44.28125 0.28125 C 44.15625 0.707031 43.859375 0.859375 43.390625 0.734375 C 42.929688 0.617188 42.765625 0.34375 42.890625 -0.09375 C 41.773438 -3.914062 40.414062 -7.617188 38.8125 -11.203125 C 37.207031 -14.785156 35.628906 -18.382812 34.078125 -22 C 32.535156 -25.613281 31.332031 -29.332031 30.46875 -33.15625 C 28.4375 -27.726562 26.414062 -22.28125 24.40625 -16.8125 C 22.394531 -11.34375 20.492188 -5.769531 18.703125 -0.09375 C 18.585938 0.34375 18.296875 0.5 17.828125 0.375 C 17.367188 0.25 17.203125 -0.03125 17.328125 -0.46875 C 17.328125 -0.582031 17.335938 -0.65625 17.359375 -0.6875 C 17.390625 -0.71875 17.40625 -0.765625 17.40625 -0.828125 C 16.363281 -2.617188 15.546875 -4.609375 14.953125 -6.796875 C 14.367188 -8.992188 13.832031 -11.082031 13.34375 -13.0625 C 12.414062 -16.519531 11.550781 -19.976562 10.75 -23.4375 C 9.945312 -26.894531 9.171875 -30.320312 8.421875 -33.71875 C 7.679688 -36.988281 6.957031 -40.273438 6.25 -43.578125 C 5.539062 -46.878906 4.847656 -50.164062 4.171875 -53.4375 C 3.921875 -54.488281 3.6875 -55.554688 3.46875 -56.640625 C 3.257812 -57.722656 3 -58.816406 2.6875 -59.921875 C 2.625 -60.234375 2.5625 -60.539062 2.5 -60.84375 C 2.4375 -61.15625 2.34375 -61.46875 2.21875 -61.78125 C 2.21875 -61.90625 2.203125 -62 2.171875 -62.0625 C 2.140625 -62.125 2.125 -62.1875 2.125 -62.25 C 2.0625 -62.3125 2.03125 -62.367188 2.03125 -62.421875 C 1.601562 -62.421875 1.40625 -62.648438 1.4375 -63.109375 C 1.46875 -63.578125 1.695312 -63.8125 2.125 -63.8125 L 8.15625 -63.8125 C 8.457031 -63.8125 8.671875 -63.691406 8.796875 -63.453125 C 9.109375 -63.453125 9.328125 -63.296875 9.453125 -62.984375 C 11.609375 -56.378906 13.347656 -49.648438 14.671875 -42.796875 C 16.003906 -35.941406 17.226562 -29.085938 18.34375 -22.234375 C 20.3125 -26.796875 22.222656 -31.410156 24.078125 -36.078125 C 25.929688 -40.742188 27.753906 -45.421875 29.546875 -50.109375 C 29.609375 -50.234375 29.703125 -50.359375 29.828125 -50.484375 C 30.191406 -50.847656 30.53125 -50.847656 30.84375 -50.484375 C 30.96875 -50.234375 31.03125 -50.078125 31.03125 -50.015625 C 33.1875 -45.503906 35.222656 -40.945312 37.140625 -36.34375 C 39.054688 -31.75 40.878906 -27.078125 42.609375 -22.328125 C 43.835938 -29.179688 45.070312 -36.035156 46.3125 -42.890625 C 47.550781 -49.742188 48.722656 -56.597656 49.828125 -63.453125 C 49.703125 -63.628906 49.734375 -63.8125 49.921875 -64 C 49.984375 -64.25 50.015625 -64.492188 50.015625 -64.734375 C 50.015625 -64.984375 50.046875 -65.203125 50.109375 -65.390625 C 50.234375 -65.890625 50.523438 -66.078125 50.984375 -65.953125 C 51.453125 -65.828125 51.625 -65.515625 51.5 -65.015625 L 51.5 -64.9375 L 53.171875 -64.9375 C 54.035156 -64.875 54.898438 -64.8125 55.765625 -64.75 C 56.628906 -64.6875 57.460938 -64.5625 58.265625 -64.375 Z M 58.265625 -64.375 "/></g></g></g><g fill="#fdc221" fill-opacity="1"><g transform="translate(258.874198, 156.976721)"><g><path d="M 40.109375 -0.375 C 40.296875 -0.125 40.296875 0.101562 40.109375 0.3125 C 39.921875 0.53125 39.703125 0.613281 39.453125 0.5625 L 39.1875 0.5625 C 38.007812 0.675781 36.816406 0.75 35.609375 0.78125 C 34.410156 0.8125 33.222656 0.707031 32.046875 0.46875 C 30.867188 0.15625 29.941406 -0.195312 29.265625 -0.59375 C 28.585938 -1 28.4375 -1.789062 28.8125 -2.96875 C 29.113281 -3.832031 29.1875 -4.664062 29.03125 -5.46875 C 28.882812 -6.269531 28.625 -7.070312 28.25 -7.875 C 28 -8.738281 27.75 -9.585938 27.5 -10.421875 C 27.257812 -11.253906 27.078125 -12.101562 26.953125 -12.96875 L 15.5625 -13.4375 C 15.125 -13.4375 14.75 -13.4375 14.4375 -13.4375 C 14.132812 -13.4375 13.859375 -13.21875 13.609375 -12.78125 C 13.304688 -12.101562 13.03125 -11.394531 12.78125 -10.65625 C 12.53125 -9.914062 12.285156 -9.144531 12.046875 -8.34375 C 11.796875 -7.039062 11.453125 -5.738281 11.015625 -4.4375 C 10.585938 -3.144531 10.375 -1.820312 10.375 -0.46875 C 10.375 -0.03125 10.128906 0.1875 9.640625 0.1875 L 9.453125 0.1875 C 9.078125 0.1875 8.441406 0.203125 7.546875 0.234375 C 6.648438 0.265625 5.738281 0.234375 4.8125 0.140625 C 3.882812 0.046875 3.082031 -0.164062 2.40625 -0.5 C 1.726562 -0.84375 1.390625 -1.351562 1.390625 -2.03125 C 1.390625 -2.21875 1.421875 -2.34375 1.484375 -2.40625 C 2.222656 -5.988281 3.117188 -9.523438 4.171875 -13.015625 C 5.222656 -16.503906 6.238281 -20.007812 7.21875 -23.53125 C 8.144531 -26.425781 8.992188 -29.335938 9.765625 -32.265625 C 10.546875 -35.203125 11.363281 -38.1875 12.21875 -41.21875 C 12.90625 -43.8125 13.617188 -46.40625 14.359375 -49 C 15.097656 -51.59375 15.867188 -54.15625 16.671875 -56.6875 C 16.984375 -58.039062 17.429688 -59.503906 18.015625 -61.078125 C 18.597656 -62.660156 18.953125 -64.035156 19.078125 -65.203125 C 19.140625 -65.515625 19.304688 -65.703125 19.578125 -65.765625 C 19.859375 -65.828125 20.09375 -65.796875 20.28125 -65.671875 C 20.59375 -65.671875 20.8125 -65.515625 20.9375 -65.203125 C 22.664062 -59.585938 24.46875 -54.015625 26.34375 -48.484375 C 28.226562 -42.960938 29.851562 -37.359375 31.21875 -31.671875 C 31.957031 -28.773438 32.695312 -25.859375 33.4375 -22.921875 C 34.175781 -19.992188 34.945312 -17.046875 35.75 -14.078125 L 38.0625 -5.75 C 38.4375 -4.820312 38.726562 -3.925781 38.9375 -3.0625 C 39.15625 -2.195312 39.546875 -1.300781 40.109375 -0.375 Z M 15 -20.1875 C 16.726562 -19.945312 18.441406 -19.84375 20.140625 -19.875 C 21.835938 -19.90625 23.550781 -19.859375 25.28125 -19.734375 C 24.238281 -23.191406 23.300781 -26.632812 22.46875 -30.0625 C 21.632812 -33.488281 21.0625 -36.960938 20.75 -40.484375 C 19.945312 -37.078125 19.082031 -33.691406 18.15625 -30.328125 C 17.226562 -26.960938 16.175781 -23.582031 15 -20.1875 Z M 15 -20.1875 "/></g></g></g><g fill="#fdc221" fill-opacity="1"><g transform="translate(309.912272, 156.976721)"><g><path d="M 41.6875 -63.640625 C 42.113281 -63.578125 42.296875 -63.34375 42.234375 -62.9375 C 42.171875 -62.539062 41.957031 -62.3125 41.59375 -62.25 C 41.28125 -57.0625 40.953125 -51.84375 40.609375 -46.59375 C 40.273438 -41.34375 40.015625 -36.09375 39.828125 -30.84375 C 39.765625 -28.125 39.703125 -25.390625 39.640625 -22.640625 C 39.578125 -19.898438 39.578125 -17.171875 39.640625 -14.453125 C 39.640625 -11.859375 39.734375 -9.109375 39.921875 -6.203125 C 39.921875 -5.585938 39.9375 -4.984375 39.96875 -4.390625 C 40 -3.804688 40.046875 -3.175781 40.109375 -2.5 C 40.109375 -2.25 40.046875 -1.941406 39.921875 -1.578125 C 40.234375 -1.453125 40.359375 -1.1875 40.296875 -0.78125 C 40.234375 -0.382812 39.984375 -0.1875 39.546875 -0.1875 L 39.09375 -0.1875 C 38.78125 -0.1875 38.59375 -0.3125 38.53125 -0.5625 C 38.15625 -0.738281 38.0625 -1.046875 38.25 -1.484375 C 38.25 -1.484375 38.234375 -1.484375 38.203125 -1.484375 C 38.171875 -1.484375 38.15625 -1.515625 38.15625 -1.578125 C 35.195312 -3.921875 32.679688 -6.664062 30.609375 -9.8125 C 28.546875 -12.96875 26.585938 -16.148438 24.734375 -19.359375 C 23.191406 -22.078125 21.492188 -24.765625 19.640625 -27.421875 C 17.785156 -30.078125 16.054688 -32.789062 14.453125 -35.5625 C 14.578125 -34.582031 14.640625 -33.613281 14.640625 -32.65625 C 14.640625 -31.695312 14.671875 -30.753906 14.734375 -29.828125 C 14.847656 -27.660156 14.90625 -25.476562 14.90625 -23.28125 C 14.90625 -21.09375 14.875 -18.890625 14.8125 -16.671875 C 14.8125 -13.523438 14.90625 -10.285156 15.09375 -6.953125 C 15.15625 -6.203125 15.1875 -5.410156 15.1875 -4.578125 C 15.1875 -3.742188 15.125 -2.925781 15 -2.125 C 15.3125 -1.945312 15.40625 -1.703125 15.28125 -1.390625 C 15.34375 -1.328125 15.375 -1.203125 15.375 -1.015625 C 15.4375 -0.828125 15.40625 -0.640625 15.28125 -0.453125 C 15.15625 -0.273438 14.972656 -0.1875 14.734375 -0.1875 L 14.171875 -0.1875 C 13.984375 -0.1875 13.828125 -0.21875 13.703125 -0.28125 C 12.597656 -0.28125 11.488281 -0.265625 10.375 -0.234375 C 9.257812 -0.203125 8.175781 -0.1875 7.125 -0.1875 C 6.507812 -0.1875 6.203125 -0.710938 6.203125 -1.765625 C 6.816406 -10.460938 7.046875 -19.347656 6.890625 -28.421875 C 6.742188 -37.503906 6.332031 -46.367188 5.65625 -55.015625 L 4.8125 -61.3125 C 4.6875 -61.8125 4.625 -62.15625 4.625 -62.34375 C 4.625 -62.519531 4.65625 -62.640625 4.71875 -62.703125 C 4.65625 -62.953125 4.671875 -63.195312 4.765625 -63.4375 C 4.859375 -63.6875 5.03125 -63.8125 5.28125 -63.8125 C 5.707031 -64.1875 6.109375 -64.1875 6.484375 -63.8125 C 8.890625 -60.726562 11.125 -57.519531 13.1875 -54.1875 C 15.257812 -50.851562 17.253906 -47.457031 19.171875 -44 C 20.160156 -42.269531 21.132812 -40.539062 22.09375 -38.8125 C 23.050781 -37.082031 24.023438 -35.320312 25.015625 -33.53125 C 25.503906 -32.726562 25.976562 -31.925781 26.4375 -31.125 C 26.90625 -30.320312 27.351562 -29.488281 27.78125 -28.625 C 28.21875 -27.820312 28.757812 -27.0625 29.40625 -26.34375 C 30.050781 -25.632812 30.867188 -24.847656 31.859375 -23.984375 L 31.953125 -23.984375 C 31.953125 -25.960938 32 -28.1875 32.09375 -30.65625 C 32.1875 -33.125 32.328125 -35.316406 32.515625 -37.234375 C 32.703125 -39.453125 32.898438 -41.65625 33.109375 -43.84375 C 33.328125 -46.039062 33.5 -48.253906 33.625 -50.484375 C 33.75 -52.085938 33.867188 -53.828125 33.984375 -55.703125 C 34.109375 -57.585938 33.988281 -59.335938 33.625 -60.953125 C 33.3125 -61.066406 33.15625 -61.25 33.15625 -61.5 L 33.15625 -62.15625 L 33.34375 -63.640625 C 33.46875 -63.753906 33.632812 -63.8125 33.84375 -63.8125 C 34.0625 -63.8125 34.234375 -63.753906 34.359375 -63.640625 C 35.597656 -63.691406 36.816406 -63.765625 38.015625 -63.859375 C 39.222656 -63.953125 40.445312 -63.878906 41.6875 -63.640625 Z M 41.6875 -63.640625 "/></g></g></g><g fill="#fdc221" fill-opacity="1"><g transform="translate(366.230115, 156.976721)"><g><path d="M 48.34375 -32.703125 C 48.65625 -30.109375 48.671875 -27.484375 48.390625 -24.828125 C 48.117188 -22.171875 47.457031 -19.640625 46.40625 -17.234375 C 45.476562 -15.191406 44.332031 -13.164062 42.96875 -11.15625 C 41.613281 -9.15625 40.007812 -7.472656 38.15625 -6.109375 C 35.070312 -3.953125 31.691406 -2.300781 28.015625 -1.15625 C 24.347656 -0.0078125 20.566406 0.679688 16.671875 0.921875 C 12.785156 1.171875 9.019531 1.019531 5.375 0.46875 L 5.1875 0.46875 C 4.8125 0.46875 4.625 0.28125 4.625 -0.09375 L 4.625 -0.28125 C 4.625 -6.144531 4.796875 -11.992188 5.140625 -17.828125 C 5.484375 -23.660156 5.625 -29.484375 5.5625 -35.296875 C 5.5 -40.046875 5.34375 -44.765625 5.09375 -49.453125 C 4.84375 -54.148438 4.84375 -58.847656 5.09375 -63.546875 C 4.78125 -63.660156 4.640625 -63.90625 4.671875 -64.28125 C 4.703125 -64.65625 4.9375 -64.84375 5.375 -64.84375 L 5.65625 -64.84375 C 5.832031 -64.957031 6.015625 -64.957031 6.203125 -64.84375 L 13.0625 -64.84375 C 13.25 -64.84375 13.375 -64.8125 13.4375 -64.75 C 17.632812 -64.25 21.785156 -63.300781 25.890625 -61.90625 C 29.992188 -60.519531 33.617188 -58.378906 36.765625 -55.484375 C 39.859375 -52.640625 42.453125 -49.179688 44.546875 -45.109375 C 46.648438 -41.035156 47.914062 -36.898438 48.34375 -32.703125 Z M 40.015625 -29.828125 C 40.140625 -31.984375 40.125 -34.15625 39.96875 -36.34375 C 39.8125 -38.539062 39.347656 -40.628906 38.578125 -42.609375 C 37.804688 -44.585938 36.523438 -46.316406 34.734375 -47.796875 C 31.710938 -50.390625 28.300781 -52.179688 24.5 -53.171875 C 20.695312 -54.160156 16.882812 -54.773438 13.0625 -55.015625 C 13.1875 -54.148438 13.289062 -53.300781 13.375 -52.46875 C 13.46875 -51.632812 13.515625 -50.785156 13.515625 -49.921875 C 13.640625 -47.941406 13.640625 -45.96875 13.515625 -44 C 13.515625 -41.832031 13.484375 -39.648438 13.421875 -37.453125 C 13.367188 -35.265625 13.3125 -33.09375 13.25 -30.9375 C 13.125 -26.925781 13.046875 -22.925781 13.015625 -18.9375 C 12.984375 -14.957031 13.125 -10.960938 13.4375 -6.953125 C 14.476562 -6.578125 15.691406 -6.523438 17.078125 -6.796875 C 18.472656 -7.078125 19.664062 -7.34375 20.65625 -7.59375 C 22.132812 -7.90625 23.628906 -8.257812 25.140625 -8.65625 C 26.660156 -9.0625 28.097656 -9.570312 29.453125 -10.1875 C 31.242188 -11.050781 32.878906 -12.253906 34.359375 -13.796875 C 35.847656 -15.335938 36.992188 -17.003906 37.796875 -18.796875 C 38.285156 -19.972656 38.726562 -21.253906 39.125 -22.640625 C 39.53125 -24.035156 39.765625 -25.410156 39.828125 -26.765625 C 39.765625 -27.140625 39.6875 -27.632812 39.59375 -28.25 C 39.5 -28.863281 39.609375 -29.359375 39.921875 -29.734375 C 39.921875 -29.734375 39.921875 -29.75 39.921875 -29.78125 C 39.921875 -29.8125 39.953125 -29.828125 40.015625 -29.828125 Z M 40.015625 -29.828125 "/></g></g></g><g fill="#fdc221" fill-opacity="1"><g transform="translate(426.994079, 156.976721)"><g><path d="M 40.015625 -7.78125 C 40.328125 -6.789062 40.492188 -5.753906 40.515625 -4.671875 C 40.546875 -3.597656 40.503906 -2.566406 40.390625 -1.578125 C 40.328125 -1.265625 40.171875 -1.09375 39.921875 -1.0625 C 39.671875 -1.03125 39.453125 -1.078125 39.265625 -1.203125 C 39.210938 -1.203125 39.171875 -1.1875 39.140625 -1.15625 C 39.109375 -1.125 39.0625 -1.109375 39 -1.109375 C 33.5625 -0.617188 27.96875 -0.414062 22.21875 -0.5 C 16.476562 -0.59375 10.863281 -0.984375 5.375 -1.671875 C 5.0625 -1.734375 4.84375 -1.945312 4.71875 -2.3125 C 4.59375 -2.6875 4.75 -2.90625 5.1875 -2.96875 L 5.375 -2.96875 L 5.375 -3.0625 L 5.5625 -3.0625 C 5.6875 -3.125 5.820312 -3.15625 5.96875 -3.15625 C 6.125 -3.15625 6.265625 -3.179688 6.390625 -3.234375 C 6.390625 -3.296875 6.421875 -3.359375 6.484375 -3.421875 C 6.359375 -3.546875 6.296875 -3.703125 6.296875 -3.890625 L 6.296875 -8.0625 C 5.984375 -8.1875 5.890625 -8.445312 6.015625 -8.84375 C 6.140625 -9.25 6.421875 -9.421875 6.859375 -9.359375 L 9.546875 -9.078125 L 17.234375 -9.078125 C 18.210938 -12.898438 18.75 -16.753906 18.84375 -20.640625 C 18.9375 -24.535156 18.890625 -28.460938 18.703125 -32.421875 C 18.523438 -36.617188 18.453125 -40.628906 18.484375 -44.453125 C 18.515625 -48.285156 18.3125 -52.085938 17.875 -55.859375 C 16.644531 -55.796875 15.378906 -55.78125 14.078125 -55.8125 C 12.785156 -55.84375 11.519531 -55.890625 10.28125 -55.953125 C 9.96875 -55.953125 9.671875 -55.9375 9.390625 -55.90625 C 9.117188 -55.875 8.828125 -55.859375 8.515625 -55.859375 C 8.273438 -55.859375 8.125 -55.890625 8.0625 -55.953125 L 7.3125 -55.953125 C 7.25 -55.953125 7.203125 -55.9375 7.171875 -55.90625 C 7.140625 -55.875 7.097656 -55.859375 7.046875 -55.859375 L 6.296875 -55.859375 C 5.929688 -55.859375 5.71875 -56.007812 5.65625 -56.3125 C 5.59375 -56.625 5.648438 -56.90625 5.828125 -57.15625 C 5.460938 -57.957031 5.1875 -58.773438 5 -59.609375 C 4.8125 -60.441406 4.65625 -61.289062 4.53125 -62.15625 C 4.476562 -62.21875 4.453125 -62.367188 4.453125 -62.609375 L 4.453125 -63.640625 C 4.203125 -63.878906 4.140625 -64.179688 4.265625 -64.546875 C 4.390625 -64.921875 4.632812 -65.019531 5 -64.84375 C 6.238281 -64.40625 7.597656 -64.203125 9.078125 -64.234375 C 10.554688 -64.265625 11.945312 -64.25 13.25 -64.1875 C 14.476562 -64.125 15.722656 -64.09375 16.984375 -64.09375 C 18.253906 -64.09375 19.507812 -64.0625 20.75 -64 C 23.40625 -63.9375 26.046875 -63.859375 28.671875 -63.765625 C 31.296875 -63.679688 33.9375 -63.515625 36.59375 -63.265625 C 37.144531 -63.390625 37.421875 -63.234375 37.421875 -62.796875 C 37.484375 -62.546875 37.484375 -62.332031 37.421875 -62.15625 C 37.359375 -61.289062 37.296875 -60.410156 37.234375 -59.515625 C 37.171875 -58.617188 37.078125 -57.769531 36.953125 -56.96875 L 36.953125 -56.78125 C 36.828125 -56.34375 36.613281 -56.125 36.3125 -56.125 C 34.519531 -56.007812 32.679688 -56.007812 30.796875 -56.125 C 28.910156 -56.25 27.070312 -56.46875 25.28125 -56.78125 L 25.28125 -56.59375 C 25.28125 -48.625 25.460938 -40.503906 25.828125 -32.234375 C 26.203125 -23.960938 26.421875 -15.84375 26.484375 -7.875 C 30.804688 -8 35.039062 -8.179688 39.1875 -8.421875 L 39.453125 -8.421875 C 39.828125 -8.421875 40.015625 -8.207031 40.015625 -7.78125 Z M 40.015625 -7.78125 "/></g></g></g><g fill="#fdc221" fill-opacity="1"><g transform="translate(481.181492, 156.976721)"><g><path d="M 12.5 -5.75 C 12.6875 -4.632812 12.5 -3.535156 11.9375 -2.453125 C 11.382812 -1.367188 10.617188 -0.582031 9.640625 -0.09375 C 8.335938 0.519531 7.019531 0.519531 5.6875 -0.09375 C 4.363281 -0.707031 3.488281 -1.695312 3.0625 -3.0625 C 2.5 -4.726562 2.695312 -6.300781 3.65625 -7.78125 C 4.613281 -9.257812 6.019531 -9.9375 7.875 -9.8125 C 8.1875 -9.8125 8.398438 -9.628906 8.515625 -9.265625 C 9.503906 -9.140625 10.382812 -8.796875 11.15625 -8.234375 C 11.925781 -7.679688 12.375 -6.851562 12.5 -5.75 Z M 12.5 -5.75 "/></g></g></g><g fill="#fdc221" fill-opacity="1"><g transform="translate(506.005947, 156.976721)"><g><path d="M 36.765625 -1.859375 C 36.953125 -1.609375 36.984375 -1.359375 36.859375 -1.109375 C 36.734375 -0.859375 36.519531 -0.703125 36.21875 -0.640625 C 31.832031 -0.273438 27.445312 -0.171875 23.0625 -0.328125 C 18.675781 -0.484375 14.289062 -0.5625 9.90625 -0.5625 C 9.664062 -0.375 9.40625 -0.335938 9.125 -0.453125 C 8.84375 -0.578125 8.703125 -0.796875 8.703125 -1.109375 L 8.703125 -1.484375 C 8.828125 -4.015625 8.71875 -6.5625 8.375 -9.125 C 8.039062 -11.6875 7.75 -14.234375 7.5 -16.765625 C 7.25 -19.484375 7.046875 -22.226562 6.890625 -25 C 6.742188 -27.78125 6.578125 -30.53125 6.390625 -33.25 C 6.078125 -38.5625 5.703125 -43.828125 5.265625 -49.046875 C 4.835938 -54.265625 4.65625 -59.5 4.71875 -64.75 C 4.65625 -64.988281 4.75 -65.171875 5 -65.296875 C 5.25 -65.421875 5.5 -65.421875 5.75 -65.296875 C 7.101562 -65.609375 8.550781 -65.78125 10.09375 -65.8125 C 11.632812 -65.84375 13.023438 -65.671875 14.265625 -65.296875 C 14.941406 -65.054688 15.265625 -64.546875 15.234375 -63.765625 C 15.203125 -62.992188 15.15625 -62.425781 15.09375 -62.0625 C 15.03125 -60.394531 15 -58.710938 15 -57.015625 C 15 -55.316406 15.125 -53.664062 15.375 -52.0625 C 15.5625 -50.570312 15.757812 -49.085938 15.96875 -47.609375 C 16.1875 -46.128906 16.359375 -44.617188 16.484375 -43.078125 C 16.984375 -37.703125 17.273438 -32.34375 17.359375 -27 C 17.453125 -21.65625 17.441406 -16.300781 17.328125 -10.9375 L 17.328125 -10.84375 L 17.234375 -8.984375 C 17.847656 -9.171875 18.554688 -9.21875 19.359375 -9.125 C 20.160156 -9.03125 20.78125 -8.953125 21.21875 -8.890625 C 23.5 -8.523438 25.765625 -8.109375 28.015625 -7.640625 C 30.273438 -7.179688 32.578125 -7.257812 34.921875 -7.875 C 35.285156 -7.875 35.5625 -7.65625 35.75 -7.21875 C 35.875 -6.289062 35.921875 -5.363281 35.890625 -4.4375 C 35.859375 -3.519531 36.148438 -2.660156 36.765625 -1.859375 Z M 36.765625 -1.859375 "/></g></g></g><g fill="#fdc221" fill-opacity="1"><g transform="translate(553.70943, 156.976721)"><g><path d="M 50.484375 -1.390625 C 50.609375 -0.835938 50.390625 -0.5625 49.828125 -0.5625 C 48.410156 -0.5 46.957031 -0.453125 45.46875 -0.421875 C 43.988281 -0.390625 42.507812 -0.28125 41.03125 -0.09375 C 40.78125 -0.03125 40.609375 -0.117188 40.515625 -0.359375 C 40.429688 -0.609375 40.421875 -0.859375 40.484375 -1.109375 C 35.847656 -5.492188 31.382812 -10.015625 27.09375 -14.671875 C 22.800781 -19.335938 18.492188 -24.019531 14.171875 -28.71875 C 14.359375 -24.019531 14.507812 -19.320312 14.625 -14.625 C 14.75 -9.9375 14.691406 -5.25 14.453125 -0.5625 C 14.390625 -0.125 14.125 0.09375 13.65625 0.09375 C 13.195312 0.09375 13 -0.125 13.0625 -0.5625 C 13 -0.5 12.90625 -0.46875 12.78125 -0.46875 C 11.851562 -0.40625 10.925781 -0.3125 10 -0.1875 C 9.070312 -0.0625 8.144531 0.0625 7.21875 0.1875 C 7.101562 0.4375 6.84375 0.5 6.4375 0.375 C 6.03125 0.25 5.859375 0 5.921875 -0.375 C 6.609375 -5.1875 6.765625 -10.0625 6.390625 -15 C 6.015625 -19.945312 5.707031 -24.828125 5.46875 -29.640625 C 5.21875 -35.378906 5.109375 -41.132812 5.140625 -46.90625 C 5.171875 -52.6875 5 -58.414062 4.625 -64.09375 L 4.625 -64.1875 C 4.625 -64.863281 4.90625 -65.140625 5.46875 -65.015625 C 6.019531 -64.960938 6.585938 -64.9375 7.171875 -64.9375 C 7.765625 -64.9375 8.335938 -64.960938 8.890625 -65.015625 L 9.453125 -65.015625 L 11.578125 -65.296875 C 12.066406 -65.359375 12.375 -65.1875 12.5 -64.78125 C 12.625 -64.382812 12.441406 -64.125 11.953125 -64 C 12.191406 -63.875 12.3125 -63.691406 12.3125 -63.453125 C 12.5 -59.128906 12.71875 -54.820312 12.96875 -50.53125 C 13.21875 -46.238281 13.460938 -41.929688 13.703125 -37.609375 C 17.347656 -42.546875 21.285156 -47.191406 25.515625 -51.546875 C 29.742188 -55.898438 33.894531 -60.332031 37.96875 -64.84375 C 38.21875 -65.207031 38.5625 -65.175781 39 -64.75 C 40.226562 -64.875 41.488281 -64.921875 42.78125 -64.890625 C 44.082031 -64.859375 45.351562 -64.78125 46.59375 -64.65625 C 47.019531 -64.59375 47.25 -64.328125 47.28125 -63.859375 C 47.3125 -63.398438 47.082031 -63.203125 46.59375 -63.265625 C 46.34375 -63.265625 46.1875 -63.296875 46.125 -63.359375 C 46.125 -63.046875 46.0625 -62.828125 45.9375 -62.703125 C 41.738281 -57.828125 37.523438 -52.960938 33.296875 -48.109375 C 29.066406 -43.265625 24.695312 -38.5625 20.1875 -34 C 25.132812 -28.5625 30.125 -23.1875 35.15625 -17.875 C 40.1875 -12.5625 45.234375 -7.25 50.296875 -1.9375 C 50.484375 -1.757812 50.546875 -1.578125 50.484375 -1.390625 Z M 50.484375 -1.390625 "/></g></g></g><g clip-path="url(#28bbf87386)"><path fill="#fdc221" d="M 58.1875 91.730469 C 58.449219 91.613281 59.292969 90.695312 60.636719 88.742188 C 61.980469 86.792969 63.789062 83.785156 66.015625 79.710938 C 68.242188 75.636719 70.910156 70.503906 72.578125 67.257812 C 74.242188 64.007812 74.675781 63.382812 75.074219 62.902344 C 75.472656 62.421875 75.832031 62.085938 76.144531 61.894531 C 76.457031 61.699219 76.699219 61.605469 77.066406 61.519531 C 77.429688 61.433594 77.832031 61.355469 78.253906 61.285156 C 78.675781 61.214844 79.117188 61.160156 79.585938 61.121094 C 80.050781 61.078125 80.539062 61.050781 83.0625 60.921875 C 85.585938 60.792969 89.667969 60.578125 93.109375 60.394531 C 96.550781 60.210938 99.351562 60.042969 101.507812 59.925781 C 103.664062 59.804688 105.164062 59.746094 108.410156 59.664062 C 111.65625 59.585938 116.984375 59.441406 136.867188 58.773438 C 156.753906 58.105469 160.109375 57.824219 163.167969 57.550781 C 166.226562 57.28125 169.042969 57.007812 171.613281 56.726562 C 174.183594 56.445312 176.515625 56.136719 178.140625 55.855469 C 179.769531 55.570312 179.769531 55.570312 178.679688 55.585938 C 178.679688 55.585938 176.5 55.078125 174.070312 54.875 C 171.644531 54.667969 168.972656 54.535156 166.054688 54.449219 C 163.136719 54.359375 159.976562 54.316406 148.398438 54.019531 C 136.824219 53.726562 116.917969 53.511719 111.523438 53.652344 C 106.128906 53.796875 104.988281 53.816406 103.191406 53.898438 C 101.390625 53.980469 98.976562 54.125 95.941406 54.367188 C 92.90625 54.609375 89.246094 54.949219 84.960938 55.378906 C 80.675781 55.8125 80.109375 55.875 79.527344 55.949219 C 78.945312 56.027344 78.382812 56.121094 77.832031 56.226562 C 77.28125 56.332031 76.75 56.457031 76.230469 56.601562 C 75.710938 56.746094 74.953125 56.988281 74.140625 57.457031 C 73.328125 57.921875 72.617188 58.535156 71.984375 59.257812 C 71.347656 59.980469 70.789062 60.8125 70.269531 61.789062 C 69.753906 62.765625 67.265625 68.832031 65.242188 73.820312 C 63.222656 78.8125 61.636719 82.742188 60.5 85.621094 C 59.363281 88.496094 58.648438 90.308594 58.445312 90.863281 C 58.058594 91.566406 58.371094 91.582031 58.1875 91.730469 Z M 58.1875 91.730469 " fill-opacity="1" fill-rule="nonzero"/></g><path fill="#fdc221" d="M 30.238281 111.367188 C 31.433594 110.941406 33.839844 109.71875 36.644531 108.421875 C 39.449219 107.125 42.683594 105.773438 46.363281 104.378906 C 50.042969 102.980469 54.167969 101.53125 57.445312 100.4375 C 60.71875 99.34375 62.902344 98.703125 65.273438 98.132812 C 67.648438 97.558594 70.214844 97.070312 72.976562 96.640625 C 75.734375 96.214844 78.6875 95.867188 84.605469 95.25 C 90.519531 94.636719 98.859375 93.78125 106.621094 93.097656 C 114.386719 92.414062 121.574219 91.902344 128.1875 91.5625 C 134.800781 91.222656 140.835938 91.023438 144.382812 90.929688 C 147.929688 90.832031 149.386719 90.832031 150.859375 90.84375 C 152.332031 90.855469 153.816406 90.882812 155.3125 90.9375 C 156.808594 90.992188 158.316406 91.074219 159.839844 91.164062 C 161.359375 91.253906 163.351562 91.402344 166.039062 91.609375 C 168.722656 91.816406 172.09375 92.082031 176.15625 92.375 C 180.21875 92.671875 184.972656 92.984375 187.976562 93.117188 C 190.980469 93.253906 191.792969 93.257812 192.664062 93.25 C 193.53125 93.238281 194.460938 93.199219 195.449219 93.136719 C 196.4375 93.070312 197.484375 92.976562 198.289062 93 C 199.097656 93.023438 199.097656 93.023438 198.558594 92.988281 C 198.558594 92.988281 197.492188 92.855469 196.492188 92.621094 C 195.488281 92.386719 194.546875 92.175781 193.664062 91.988281 C 192.78125 91.800781 191.953125 91.636719 191.195312 91.476562 C 190.433594 91.316406 185.304688 90.292969 180.835938 89.496094 C 176.371094 88.703125 172.570312 88.078125 169.445312 87.585938 C 166.320312 87.09375 163.867188 86.734375 162.082031 86.492188 C 160.292969 86.246094 158.734375 86.058594 157.1875 85.902344 C 155.640625 85.746094 154.101562 85.621094 152.570312 85.511719 C 151.039062 85.402344 149.519531 85.320312 147.992188 85.269531 C 146.46875 85.21875 140.722656 85.15625 134.398438 85.367188 C 128.074219 85.582031 121.191406 85.984375 113.742188 86.558594 C 106.292969 87.128906 98.28125 87.875 89.707031 88.816406 C 81.132812 89.761719 77.957031 90.195312 74.953125 90.71875 C 71.949219 91.242188 69.136719 91.851562 66.511719 92.554688 C 63.886719 93.257812 61.453125 94.039062 59.230469 94.910156 C 57.011719 95.777344 52.648438 97.597656 48.738281 99.417969 C 44.824219 101.234375 41.378906 103.023438 38.417969 104.804688 C 35.453125 106.582031 32.984375 108.359375 32.039062 109.410156 C 30.113281 111.199219 31.214844 110.625 30.238281 111.367188 Z M 30.238281 111.367188 " fill-opacity="1" fill-rule="nonzero"/><path fill="#fdc221" d="M 29.398438 114.449219 C 29.140625 115.34375 29.015625 117.953125 29.125 121.777344 C 29.234375 125.601562 29.597656 130.632812 30.199219 136.871094 C 30.800781 143.113281 31.632812 150.5625 32.371094 155.5625 C 33.113281 160.566406 33.742188 162.066406 34.695312 163.367188 C 35.648438 164.671875 36.886719 165.726562 38.351562 166.507812 C 39.816406 167.285156 41.472656 167.796875 42.996094 168.105469 C 44.523438 168.410156 46.191406 168.660156 48.148438 168.839844 C 50.105469 169.019531 52.363281 169.152344 54.925781 169.242188 C 57.488281 169.328125 60.359375 169.371094 70.03125 169.050781 C 79.699219 168.730469 95.515625 168.191406 110.859375 167.816406 C 126.199219 167.445312 141.0625 167.238281 155.453125 167.199219 C 169.839844 167.15625 183.753906 167.285156 195.554688 167.46875 C 207.355469 167.65625 217.640625 167.882812 228.394531 168.253906 C 239.144531 168.621094 250.378906 168.894531 262.097656 169.15625 C 273.816406 169.421875 286.027344 169.566406 295.4375 169.589844 C 304.851562 169.613281 304.851562 169.613281 298.605469 169.167969 C 298.605469 169.167969 286.203125 166.988281 274.203125 165.6875 C 262.203125 164.386719 250.648438 163.449219 239.542969 162.863281 C 228.441406 162.277344 217.796875 161.953125 207.625 161.769531 C 197.457031 161.589844 183.832031 161.351562 169.710938 161.28125 C 155.59375 161.210938 141.003906 161.304688 125.9375 161.570312 C 110.871094 161.832031 95.332031 162.261719 79.335938 162.859375 C 63.339844 163.453125 60.417969 163.441406 57.722656 163.382812 C 55.027344 163.328125 52.660156 163.226562 50.628906 163.089844 C 48.59375 162.949219 46.90625 162.769531 45.535156 162.570312 C 44.164062 162.371094 42.808594 162.152344 41.839844 161.835938 C 40.867188 161.523438 40.132812 161.105469 39.574219 160.605469 C 39.015625 160.101562 38.578125 159.476562 38.261719 158.714844 C 37.945312 157.953125 36.480469 149.832031 35.195312 142.882812 C 33.910156 135.933594 32.828125 130.199219 31.960938 125.671875 C 31.097656 121.144531 30.429688 117.824219 30.03125 116.570312 C 29.609375 114.441406 29.421875 115.328125 29.398438 114.449219 Z M 29.398438 114.449219 " fill-opacity="1" fill-rule="nonzero"/><path fill="#fdc221" d="M 68.679688 96.75 C 68.882812 98.003906 69.683594 100.324219 70.496094 102.632812 C 71.308594 104.945312 72.105469 107.265625 72.867188 109.601562 C 73.625 111.9375 74.351562 114.292969 74.902344 116.132812 C 75.453125 117.96875 75.765625 119.074219 75.949219 119.917969 C 76.128906 120.761719 76.199219 121.3125 76.199219 121.433594 C 76.203125 121.554688 76.503906 121.070312 75.011719 121.050781 C 73.515625 121.03125 69.824219 121.332031 66.269531 121.546875 C 62.714844 121.761719 59.296875 121.902344 56.007812 121.921875 C 52.722656 121.941406 49.5625 121.855469 47.789062 121.785156 C 46.015625 121.714844 45.707031 121.601562 45.273438 121.214844 C 44.835938 120.832031 44.3125 120.066406 43.777344 118.898438 C 43.246094 117.730469 42.730469 116.175781 42.480469 115.621094 C 42.226562 115.066406 42.066406 115.429688 41.953125 115.558594 C 41.839844 115.683594 41.835938 115.679688 41.9375 115.621094 C 42.035156 115.5625 42.21875 115.480469 42.671875 115.292969 C 43.128906 115.109375 43.8125 114.839844 44.578125 114.542969 C 45.347656 114.25 46.199219 113.933594 47.136719 113.597656 C 48.074219 113.265625 49.089844 112.898438 50.847656 112.28125 C 52.605469 111.664062 54.871094 110.867188 56.882812 110.167969 C 58.894531 109.472656 60.65625 108.867188 62.171875 108.34375 C 63.683594 107.816406 64.953125 107.371094 65.804688 107.191406 C 66.65625 107.007812 66.65625 107.007812 66.082031 107.09375 C 66.082031 107.09375 64.917969 107.15625 63.472656 107.246094 C 62.03125 107.335938 60.335938 107.5625 58.394531 107.921875 C 56.453125 108.277344 54.261719 108.757812 51.828125 109.351562 C 49.394531 109.949219 48.285156 110.230469 47.25 110.5 C 46.21875 110.773438 45.265625 111.035156 44.394531 111.28125 C 43.523438 111.53125 42.734375 111.773438 42.035156 112.003906 C 41.332031 112.234375 41.015625 112.339844 40.6875 112.472656 C 40.363281 112.605469 40.058594 112.765625 39.75 113.003906 C 39.441406 113.238281 39.132812 113.628906 38.996094 114.363281 C 38.859375 115.101562 39.265625 117.09375 39.789062 118.796875 C 40.316406 120.503906 40.964844 121.925781 41.800781 123.074219 C 42.632812 124.21875 43.722656 125.054688 44.957031 125.414062 C 46.195312 125.773438 49.371094 126.027344 52.679688 126.101562 C 55.988281 126.175781 59.421875 126.113281 62.976562 125.910156 C 66.53125 125.707031 70.203125 125.328125 74.003906 124.792969 C 77.800781 124.257812 79.042969 123.632812 79.40625 122.695312 C 79.769531 121.757812 79.71875 120.949219 79.523438 120.050781 C 79.328125 119.15625 79 118.105469 78.546875 116.875 C 78.089844 115.644531 77.203125 113.304688 76.25 110.992188 C 75.292969 108.675781 74.277344 106.398438 73.1875 104.167969 C 72.101562 101.9375 70.929688 99.761719 70.136719 98.773438 C 68.816406 96.683594 69.210938 97.851562 68.679688 96.75 Z M 68.679688 96.75 " fill-opacity="1" fill-rule="nonzero"/><path fill="#fdc221" d="M 166.9375 128.304688 C 166.335938 128.09375 165.132812 127.90625 163.9375 127.765625 C 162.742188 127.628906 161.558594 127.519531 160.386719 127.429688 C 159.214844 127.34375 158.054688 127.277344 153.707031 127.160156 C 149.359375 127.042969 142.507812 126.957031 136.660156 126.917969 C 130.816406 126.878906 125.976562 126.871094 122.144531 126.910156 C 118.308594 126.945312 115.488281 126.945312 113.847656 126.9375 C 112.210938 126.925781 110.535156 126.890625 107.960938 126.808594 C 105.390625 126.726562 101.933594 126.589844 97.59375 126.40625 C 93.25 126.21875 88.027344 125.980469 84.050781 126.382812 C 80.074219 126.789062 79.402344 127.339844 78.710938 127.875 C 78.019531 128.410156 77.3125 128.925781 76.585938 129.425781 C 75.859375 129.925781 75.113281 130.40625 74.441406 132.371094 C 73.773438 134.332031 74.054688 135.496094 74.289062 137.011719 C 74.527344 138.527344 74.710938 140.382812 74.835938 142.570312 C 74.964844 144.753906 75.03125 147.261719 75.640625 149.597656 C 76.253906 151.933594 77.011719 152.222656 77.734375 152.347656 C 78.453125 152.472656 79.390625 152.574219 80.597656 152.671875 C 81.804688 152.769531 83.296875 152.863281 90.15625 153.003906 C 97.015625 153.144531 108.941406 153.378906 120.816406 153.683594 C 132.691406 153.984375 144.515625 154.355469 156.300781 154.546875 C 168.085938 154.738281 179.835938 154.71875 188.632812 154.585938 C 197.433594 154.453125 197.433594 154.453125 191.582031 154.175781 C 191.582031 154.175781 179.933594 152.535156 168.195312 151.621094 C 156.457031 150.703125 144.65625 150.144531 132.796875 149.796875 C 120.941406 149.449219 109.03125 149.167969 97.082031 148.957031 C 85.128906 148.742188 83.539062 148.65625 82.191406 148.566406 C 80.839844 148.472656 79.800781 148.382812 79.09375 148.292969 C 78.386719 148.207031 78.082031 148.144531 78.675781 149.015625 C 79.273438 149.886719 79.246094 147.183594 79.15625 144.699219 C 79.0625 142.214844 78.910156 140.03125 78.6875 138.140625 C 78.46875 136.246094 78.179688 134.636719 77.832031 133.9375 C 77.484375 133.238281 77.371094 133.964844 78.171875 133.433594 C 78.976562 132.90625 79.761719 132.355469 80.527344 131.785156 C 81.296875 131.214844 82.042969 130.625 82.132812 130.269531 C 82.222656 129.917969 87.835938 130.191406 92.769531 130.410156 C 97.707031 130.632812 101.761719 130.800781 104.941406 130.921875 C 108.121094 131.039062 110.429688 131.105469 111.859375 131.121094 C 113.289062 131.136719 115.46875 131.160156 118.660156 131.148438 C 121.851562 131.132812 126.039062 131.070312 131.222656 130.867188 C 136.402344 130.664062 142.585938 130.339844 149.761719 129.863281 C 156.9375 129.382812 158.066406 129.304688 159.222656 129.226562 C 160.378906 129.148438 161.546875 129.070312 162.734375 128.976562 C 163.917969 128.882812 165.113281 128.773438 165.722656 128.609375 C 166.933594 128.453125 166.332031 128.289062 166.9375 128.304688 Z M 166.9375 128.304688 " fill-opacity="1" fill-rule="nonzero"/><g clip-path="url(#e88e3e2b1a)"><path fill="#fdc221" d="M 29.191406 127.609375 C 29.136719 128.039062 29.011719 129.738281 28.769531 132.726562 C 28.523438 135.714844 28.203125 140 27.78125 145.578125 C 27.363281 151.15625 26.875 158.03125 26.613281 162.304688 C 26.351562 166.578125 26.394531 167.269531 26.511719 167.933594 C 26.628906 168.59375 26.8125 169.21875 27.0625 169.808594 C 27.3125 170.398438 27.644531 170.941406 28.777344 171.945312 C 29.910156 172.949219 31.835938 174.027344 34.125 174.855469 C 36.417969 175.679688 39.074219 176.269531 42.101562 176.632812 C 45.132812 177 48.539062 177.144531 51.167969 177.082031 C 53.800781 177.019531 55.210938 176.886719 56.402344 176.730469 C 57.597656 176.574219 58.578125 176.390625 59.351562 176.1875 C 60.125 175.984375 60.703125 175.742188 61.09375 175.492188 C 61.480469 175.242188 61.8125 174.871094 62.023438 174.394531 C 62.234375 173.917969 62.339844 173.34375 62.359375 172.664062 C 62.382812 171.988281 62.316406 171.203125 62.304688 170.558594 C 62.292969 169.917969 62.292969 169.917969 62.28125 170.34375 C 62.28125 170.34375 62.199219 171.195312 62.011719 171.902344 C 61.824219 172.605469 61.625 173.160156 61.40625 173.554688 C 61.191406 173.949219 60.984375 174.1875 60.769531 174.304688 C 60.554688 174.417969 60.226562 174.535156 59.683594 174.621094 C 59.140625 174.710938 58.359375 174.769531 57.351562 174.792969 C 56.34375 174.816406 55.113281 174.808594 53.6875 174.769531 C 52.257812 174.726562 48.707031 174.402344 45.59375 173.949219 C 42.480469 173.492188 39.804688 172.902344 37.582031 172.175781 C 35.355469 171.449219 33.585938 170.601562 32.246094 169.644531 C 30.910156 168.6875 31.027344 168.757812 30.917969 168.519531 C 30.808594 168.28125 30.710938 167.988281 30.636719 167.632812 C 30.5625 167.273438 30.515625 166.851562 30.484375 166.402344 C 30.453125 165.953125 30.621094 158.195312 30.652344 151.71875 C 30.6875 145.242188 30.601562 140.058594 30.40625 136.175781 C 30.214844 132.289062 29.914062 129.707031 29.671875 128.851562 C 29.339844 127.578125 29.28125 128.03125 29.191406 127.609375 Z M 29.191406 127.609375 " fill-opacity="1" fill-rule="nonzero"/></g><g clip-path="url(#687c8c3d0c)"><path fill="#fdc221" d="M 55.273438 98.660156 C 55.148438 98.410156 54.851562 97.953125 54.566406 97.484375 C 54.285156 97.019531 54.011719 96.539062 53.757812 96.042969 C 53.5 95.546875 53.253906 95.035156 53.074219 94.644531 C 52.898438 94.253906 52.78125 93.96875 52.636719 93.539062 C 52.496094 93.113281 52.320312 92.554688 52.128906 91.867188 C 51.933594 91.175781 51.714844 90.363281 51.550781 89.792969 C 51.386719 89.222656 51.332031 89.078125 51.273438 88.9375 C 51.214844 88.800781 51.148438 88.667969 51.082031 88.539062 C 51.015625 88.414062 50.945312 88.292969 50.804688 88.078125 C 50.660156 87.867188 50.378906 87.550781 50.039062 87.292969 C 49.699219 87.039062 49.320312 86.839844 48.90625 86.699219 C 48.488281 86.554688 48.046875 86.460938 47.691406 86.417969 C 47.335938 86.375 47.085938 86.351562 46.832031 86.335938 C 46.574219 86.320312 46.320312 86.3125 46.058594 86.3125 C 45.796875 86.308594 45.535156 86.3125 45.0625 86.367188 C 44.589844 86.421875 43.695312 86.507812 42.222656 86.601562 C 40.746094 86.699219 38.710938 86.808594 36.117188 86.9375 C 33.527344 87.066406 30.386719 87.292969 28.546875 87.488281 C 26.703125 87.679688 26.421875 87.722656 26.136719 87.8125 C 25.855469 87.90625 25.578125 88.046875 25.328125 88.238281 C 25.074219 88.429688 24.867188 88.664062 24.597656 89.972656 C 24.324219 91.28125 24.253906 92.746094 24.222656 93.957031 C 24.191406 95.167969 24.199219 96.128906 24.253906 96.871094 C 24.308594 97.613281 24.4375 98.222656 25.226562 98.84375 C 26.019531 99.464844 26.507812 99.53125 27.011719 99.570312 C 27.515625 99.609375 28.03125 99.628906 28.5625 99.621094 C 29.089844 99.617188 29.632812 99.59375 30.042969 99.566406 C 30.457031 99.542969 31.050781 99.496094 32.015625 99.398438 C 32.980469 99.300781 34.332031 99.148438 36.070312 98.90625 C 37.808594 98.664062 39.933594 98.289062 41.722656 98.035156 C 43.515625 97.785156 43.515625 97.785156 42.316406 97.855469 C 42.316406 97.855469 39.898438 97.691406 37.882812 97.582031 C 35.867188 97.472656 34.246094 97.429688 33.027344 97.402344 C 31.804688 97.378906 30.984375 97.359375 30.5625 97.339844 C 30.136719 97.316406 29.605469 97.300781 29.128906 97.265625 C 28.652344 97.234375 28.195312 97.1875 27.761719 97.121094 C 27.328125 97.054688 26.914062 96.972656 26.707031 96.953125 C 26.503906 96.933594 27.023438 97.503906 27.015625 97.175781 C 27.011719 96.851562 27.039062 96.171875 27.125 95.203125 C 27.207031 94.238281 27.351562 92.996094 27.542969 91.515625 C 27.734375 90.03125 27.441406 90.777344 27.382812 90.839844 C 27.320312 90.90625 27.246094 90.957031 27.179688 90.992188 C 27.109375 91.023438 27.066406 91.039062 27.097656 91.046875 C 27.132812 91.050781 30.65625 90.898438 33.617188 90.621094 C 36.582031 90.339844 38.992188 90.054688 40.859375 89.8125 C 42.722656 89.570312 44.046875 89.363281 44.824219 89.210938 C 45.597656 89.058594 45.71875 89.039062 45.9375 89.015625 C 46.15625 88.992188 46.371094 88.976562 46.582031 88.964844 C 46.796875 88.953125 47.003906 88.945312 47.203125 88.941406 C 47.398438 88.941406 47.71875 88.953125 47.964844 88.984375 C 48.210938 89.019531 48.402344 89.070312 48.550781 89.132812 C 48.695312 89.195312 48.808594 89.265625 48.914062 89.378906 C 49.019531 89.492188 49.054688 89.53125 49.101562 89.59375 C 49.144531 89.660156 49.195312 89.734375 49.246094 89.820312 C 49.296875 89.902344 49.355469 90 49.398438 90.070312 C 49.441406 90.140625 49.78125 91.003906 50.097656 91.765625 C 50.414062 92.523438 50.699219 93.164062 50.949219 93.6875 C 51.203125 94.210938 51.429688 94.621094 51.617188 94.902344 C 51.804688 95.1875 52.140625 95.675781 52.5 96.15625 C 52.863281 96.636719 53.246094 97.085938 53.648438 97.5 C 54.050781 97.910156 54.472656 98.285156 54.726562 98.429688 C 55.167969 98.765625 55.082031 98.46875 55.273438 98.660156 Z M 55.273438 98.660156 " fill-opacity="1" fill-rule="nonzero"/></g></svg>