<svg xmlns="http://www.w3.org/2000/svg" xmlns:xlink="http://www.w3.org/1999/xlink" width="40" zoomAndPan="magnify" viewBox="0 0 30 30.000001" height="40" preserveAspectRatio="xMidYMid meet" version="1.0"><defs><clipPath id="8ede130233"><path d="M 0.484375 2.902344 L 29.515625 2.902344 L 29.515625 25.402344 L 0.484375 25.402344 Z M 0.484375 2.902344 " clip-rule="nonzero"/></clipPath><clipPath id="aa93a64196"><path d="M 11 13 L 21 13 L 21 25.402344 L 11 25.402344 Z M 11 13 " clip-rule="nonzero"/></clipPath></defs><g clip-path="url(#8ede130233)"><path fill="#6e6e6e" d="M 2.652344 18.390625 L 4.675781 18.390625 C 5.246094 18.390625 5.707031 17.925781 5.707031 17.359375 C 5.707031 16.789062 5.246094 16.324219 4.675781 16.324219 L 2.652344 16.324219 C 2.871094 13.679688 3.921875 11.269531 5.542969 9.359375 L 6.96875 10.789062 C 7.371094 11.191406 8.027344 11.191406 8.429688 10.789062 C 8.832031 10.382812 8.832031 9.730469 8.429688 9.328125 L 7 7.898438 C 8.914062 6.28125 11.324219 5.230469 13.96875 5.011719 L 13.96875 7.03125 C 13.96875 7.601562 14.429688 8.066406 15 8.066406 C 15.570312 8.066406 16.03125 7.601562 16.03125 7.03125 L 16.03125 5.011719 C 18.675781 5.230469 21.085938 6.28125 23 7.898438 L 21.570312 9.328125 C 21.167969 9.730469 21.167969 10.382812 21.570312 10.789062 C 21.972656 11.191406 22.628906 11.191406 23.03125 10.789062 L 24.457031 9.359375 C 26.078125 11.273438 27.128906 13.679688 27.347656 16.324219 L 25.324219 16.324219 C 24.753906 16.324219 24.292969 16.789062 24.292969 17.359375 C 24.292969 17.925781 24.753906 18.390625 25.324219 18.390625 L 27.347656 18.390625 C 27.175781 20.453125 26.5 22.375 25.441406 24.027344 C 25.132812 24.507812 25.273438 25.148438 25.753906 25.453125 C 26.230469 25.761719 26.871094 25.621094 27.179688 25.144531 C 28.621094 22.894531 29.453125 20.222656 29.453125 17.359375 C 29.453125 9.378906 22.976562 2.902344 15 2.902344 C 7.023438 2.902344 0.546875 9.378906 0.546875 17.359375 C 0.546875 20.222656 1.378906 22.894531 2.820312 25.144531 C 3.128906 25.621094 3.769531 25.761719 4.246094 25.453125 C 4.726562 25.148438 4.867188 24.507812 4.558594 24.027344 C 3.5 22.375 2.824219 20.453125 2.652344 18.390625 Z M 2.652344 18.390625 " fill-opacity="1" fill-rule="evenodd"/></g><g clip-path="url(#aa93a64196)"><path fill="#6e6e6e" d="M 15.566406 19.472656 C 15.382812 19.441406 15.191406 19.421875 15 19.421875 C 13.289062 19.421875 11.902344 20.808594 11.902344 22.519531 C 11.902344 24.230469 13.289062 25.617188 15 25.617188 C 16.710938 25.617188 18.097656 24.230469 18.097656 22.519531 C 18.097656 21.753906 17.816406 21.050781 17.355469 20.507812 L 20.664062 14.777344 C 20.949219 14.28125 20.777344 13.652344 20.285156 13.367188 C 19.792969 13.082031 19.160156 13.25 18.875 13.742188 Z M 15.566406 19.472656 " fill-opacity="1" fill-rule="evenodd"/></g></svg>