<svg xmlns="http://www.w3.org/2000/svg" xmlns:xlink="http://www.w3.org/1999/xlink" width="40" zoomAndPan="magnify" viewBox="0 0 30 30.000001" height="40" preserveAspectRatio="xMidYMid meet" version="1.0"><defs><clipPath id="66ab60eb02"><path d="M 8 0.367188 L 22 0.367188 L 22 14 L 8 14 Z M 8 0.367188 " clip-rule="nonzero"/></clipPath><clipPath id="d2629cd245"><path d="M 2.316406 12 L 27.71875 12 L 27.71875 28.671875 L 2.316406 28.671875 Z M 2.316406 12 " clip-rule="nonzero"/></clipPath></defs><g clip-path="url(#66ab60eb02)"><path fill="#6e6e6e" d="M 14.96875 0.457031 C 11.414062 0.457031 8.523438 3.34375 8.523438 6.898438 C 8.523438 10.453125 11.414062 13.339844 14.96875 13.339844 C 18.523438 13.339844 21.410156 10.453125 21.410156 6.898438 C 21.410156 3.34375 18.523438 0.457031 14.96875 0.457031 Z M 14.96875 2.800781 C 15.289062 2.800781 15.550781 3.0625 15.550781 3.386719 C 15.550781 3.707031 15.289062 3.972656 14.96875 3.972656 C 14.644531 3.972656 14.382812 3.707031 14.382812 3.386719 C 14.382812 3.0625 14.644531 2.800781 14.96875 2.800781 Z M 12.039062 2.800781 C 12.359375 2.800781 12.625 3.0625 12.625 3.386719 C 12.625 3.707031 12.359375 3.972656 12.039062 3.972656 C 11.714844 3.972656 11.453125 3.707031 11.453125 3.386719 C 11.453125 3.0625 11.714844 2.800781 12.039062 2.800781 Z M 12.039062 11 C 11.714844 11 11.453125 10.734375 11.453125 10.414062 C 11.453125 10.089844 11.714844 9.828125 12.039062 9.828125 C 12.359375 9.828125 12.625 10.089844 12.625 10.414062 C 12.625 10.734375 12.359375 11 12.039062 11 Z M 14.96875 11 C 14.644531 11 14.382812 10.734375 14.382812 10.414062 C 14.382812 10.089844 14.644531 9.828125 14.96875 9.828125 C 15.289062 9.828125 15.550781 10.089844 15.550781 10.414062 C 15.550781 10.734375 15.289062 11 14.96875 11 Z M 17.894531 11 C 17.574219 11 17.308594 10.734375 17.308594 10.414062 C 17.308594 10.089844 17.574219 9.828125 17.894531 9.828125 C 18.21875 9.828125 18.480469 10.089844 18.480469 10.414062 C 18.480469 10.734375 18.21875 11 17.894531 11 Z M 18.480469 8.65625 C 18.480469 8.980469 18.21875 9.242188 17.894531 9.242188 C 17.574219 9.242188 17.308594 8.980469 17.308594 8.65625 L 17.308594 7.484375 L 15.550781 7.484375 L 15.550781 8.65625 C 15.550781 8.980469 15.289062 9.242188 14.96875 9.242188 C 14.644531 9.242188 14.382812 8.980469 14.382812 8.65625 L 14.382812 7.484375 L 12.625 7.484375 L 12.625 8.65625 C 12.625 8.980469 12.359375 9.242188 12.039062 9.242188 C 11.714844 9.242188 11.453125 8.980469 11.453125 8.65625 L 11.453125 5.144531 C 11.453125 4.820312 11.714844 4.558594 12.039062 4.558594 C 12.359375 4.558594 12.625 4.820312 12.625 5.144531 L 12.625 6.3125 L 14.382812 6.3125 L 14.382812 5.144531 C 14.382812 4.820312 14.644531 4.558594 14.96875 4.558594 C 15.289062 4.558594 15.550781 4.820312 15.550781 5.144531 L 15.550781 6.3125 L 17.308594 6.3125 L 17.308594 5.144531 C 17.308594 4.820312 17.574219 4.558594 17.894531 4.558594 C 18.21875 4.558594 18.480469 4.820312 18.480469 5.144531 Z M 17.894531 3.972656 C 17.574219 3.972656 17.308594 3.707031 17.308594 3.386719 C 17.308594 3.0625 17.574219 2.800781 17.894531 2.800781 C 18.21875 2.800781 18.480469 3.0625 18.480469 3.386719 C 18.480469 3.707031 18.21875 3.972656 17.894531 3.972656 Z M 17.894531 3.972656 " fill-opacity="1" fill-rule="nonzero"/></g><path fill="#6e6e6e" d="M 17.179688 14.179688 L 16.917969 17.644531 C 16.835938 18.789062 15.867188 19.679688 14.722656 19.679688 C 13.574219 19.679688 12.613281 18.789062 12.523438 17.644531 L 12.242188 14.007812 C 13.09375 14.335938 14.007812 14.511719 14.96875 14.511719 C 15.738281 14.511719 16.484375 14.394531 17.179688 14.179688 Z M 17.179688 14.179688 " fill-opacity="1" fill-rule="nonzero"/><path fill="#6e6e6e" d="M 23.714844 23.691406 C 23.738281 23.890625 23.679688 24.082031 23.550781 24.234375 C 23.417969 24.386719 23.234375 24.46875 23.03125 24.46875 L 6.914062 24.46875 C 6.714844 24.46875 6.535156 24.386719 6.40625 24.238281 C 6.269531 24.101562 6.210938 23.90625 6.230469 23.714844 L 7.296875 13.007812 C 7.332031 12.933594 7.355469 12.84375 7.355469 12.757812 C 7.355469 12.703125 7.347656 12.65625 7.335938 12.609375 L 7.441406 11.527344 C 7.472656 11.226562 7.722656 11 8.027344 11 L 8.554688 11 C 9.1875 11.984375 10.035156 12.816406 11.039062 13.417969 C 11.03125 13.453125 11.027344 13.5 11.03125 13.539062 L 11.355469 17.734375 C 11.488281 19.480469 12.96875 20.847656 14.722656 20.847656 C 16.476562 20.847656 17.953125 19.480469 18.089844 17.734375 L 18.398438 13.691406 C 19.617188 13.078125 20.648438 12.140625 21.378906 11 L 21.515625 11 C 21.808594 11 22.054688 11.214844 22.09375 11.507812 Z M 23.714844 23.691406 " fill-opacity="1" fill-rule="nonzero"/><g clip-path="url(#d2629cd245)"><path fill="#6e6e6e" d="M 27.148438 27.914062 C 26.796875 28.328125 26.28125 28.566406 25.730469 28.566406 L 4.203125 28.566406 C 3.671875 28.566406 3.160156 28.339844 2.808594 27.941406 C 2.457031 27.542969 2.292969 27.011719 2.359375 26.484375 L 3.933594 13.710938 C 4.046875 12.832031 4.792969 12.171875 5.679688 12.171875 L 6.199219 12.171875 L 6.082031 13.339844 L 5.0625 23.597656 C 5.011719 24.117188 5.1875 24.636719 5.539062 25.03125 C 5.890625 25.417969 6.386719 25.640625 6.914062 25.640625 L 23.03125 25.640625 C 23.570312 25.640625 24.078125 25.410156 24.429688 25.007812 C 24.78125 24.601562 24.945312 24.066406 24.875 23.539062 L 23.515625 13.339844 L 23.363281 12.171875 L 23.726562 12.171875 C 24.589844 12.171875 25.320312 12.792969 25.460938 13.640625 L 27.5625 26.40625 C 27.65625 26.945312 27.503906 27.496094 27.148438 27.914062 Z M 27.148438 27.914062 " fill-opacity="1" fill-rule="nonzero"/></g><path fill="#6e6e6e" d="M 7.355469 12.757812 C 7.355469 12.84375 7.332031 12.933594 7.296875 13.007812 L 7.335938 12.609375 C 7.347656 12.65625 7.355469 12.703125 7.355469 12.757812 Z M 7.355469 12.757812 " fill-opacity="1" fill-rule="nonzero"/></svg>