<svg xmlns="http://www.w3.org/2000/svg" xmlns:xlink="http://www.w3.org/1999/xlink" width="40" zoomAndPan="magnify" viewBox="0 0 30 30.000001" height="40" preserveAspectRatio="xMidYMid meet" version="1.0"><defs><clipPath id="88e4929c7f"><path d="M 0.953125 4.179688 L 29.039062 4.179688 L 29.039062 24.851562 L 0.953125 24.851562 Z M 0.953125 4.179688 " clip-rule="nonzero"/></clipPath></defs><g clip-path="url(#88e4929c7f)"><path fill="#6e6e6e" d="M 27.605469 15.320312 C 27.089844 16.121094 24.992188 16.941406 24.664062 17.0625 C 24.644531 17.070312 24.625 17.082031 24.605469 17.089844 C 24.542969 17.117188 24.34375 17.171875 24.050781 16.863281 C 23.792969 16.589844 23.351562 15.898438 23.128906 15.535156 C 23.054688 15.417969 23.105469 15.261719 23.238281 15.210938 L 27.15625 13.722656 C 27.238281 13.691406 27.332031 13.714844 27.390625 13.78125 C 27.605469 14.023438 28.042969 14.640625 27.605469 15.320312 Z M 26.578125 21.199219 C 26.304688 21.277344 25.917969 21.332031 25.375 21.300781 C 25.183594 21.289062 25 21.214844 24.851562 21.089844 L 23.621094 20.070312 C 23.4375 19.917969 23.472656 19.628906 23.683594 19.519531 C 24.148438 19.289062 24.957031 18.988281 25.960938 19.066406 C 26.386719 19.101562 26.757812 19.371094 26.914062 19.769531 C 26.980469 19.941406 27.042969 20.144531 27.085938 20.386719 C 27.148438 20.75 26.929688 21.101562 26.578125 21.199219 Z M 22.914062 21.371094 L 7.078125 21.371094 C 6.921875 21.371094 6.839844 21.273438 6.945312 21.210938 L 7.660156 20.804688 C 8.46875 20.386719 9.40625 20.347656 9.777344 20.351562 C 10.195312 20.359375 10.609375 20.359375 11.027344 20.359375 L 18.964844 20.359375 C 19.382812 20.359375 19.796875 20.359375 20.214844 20.351562 C 20.585938 20.347656 21.523438 20.386719 22.332031 20.804688 L 23.046875 21.210938 C 23.152344 21.273438 23.070312 21.371094 22.914062 21.371094 Z M 6.863281 15.535156 C 6.640625 15.898438 6.199219 16.589844 5.941406 16.863281 C 5.648438 17.171875 5.449219 17.117188 5.386719 17.089844 C 5.367188 17.082031 5.347656 17.070312 5.328125 17.0625 C 5 16.941406 2.902344 16.121094 2.386719 15.320312 C 1.949219 14.640625 2.386719 14.023438 2.601562 13.78125 C 2.660156 13.714844 2.753906 13.691406 2.835938 13.722656 L 6.753906 15.210938 C 6.886719 15.261719 6.9375 15.417969 6.863281 15.535156 Z M 6.371094 20.070312 L 5.140625 21.089844 C 4.992188 21.214844 4.808594 21.289062 4.617188 21.300781 C 4.074219 21.332031 3.6875 21.277344 3.414062 21.199219 C 3.0625 21.101562 2.84375 20.75 2.90625 20.386719 C 2.949219 20.144531 3.011719 19.941406 3.078125 19.769531 C 3.234375 19.371094 3.605469 19.101562 4.03125 19.066406 C 5.035156 18.988281 5.84375 19.289062 6.308594 19.519531 C 6.519531 19.628906 6.554688 19.917969 6.371094 20.070312 Z M 22.183594 17.820312 C 21.871094 18.097656 21.359375 18.398438 20.558594 18.53125 C 20.558594 18.53125 18.492188 18.898438 14.996094 18.898438 C 11.5 18.898438 9.433594 18.53125 9.433594 18.53125 C 8.632812 18.398438 8.121094 18.097656 7.808594 17.820312 C 7.503906 17.546875 7.4375 17.09375 7.652344 16.746094 L 7.820312 16.46875 C 8.140625 15.949219 8.671875 15.59375 9.273438 15.496094 C 10.5625 15.285156 12.601562 15.269531 13.863281 15.285156 C 14.609375 15.292969 15.355469 15.292969 16.101562 15.285156 C 17.363281 15.269531 19.421875 15.285156 20.71875 15.496094 C 21.320312 15.59375 21.851562 15.949219 22.171875 16.46875 L 22.339844 16.746094 C 22.554688 17.09375 22.488281 17.546875 22.183594 17.820312 Z M 5.605469 9.417969 C 5.738281 8.996094 6.179688 7.910156 7.550781 5.988281 C 7.832031 5.59375 8.277344 5.34375 8.765625 5.3125 C 10.019531 5.230469 12.628906 5.078125 14.996094 5.078125 C 17.363281 5.078125 19.972656 5.230469 21.226562 5.3125 C 21.714844 5.34375 22.160156 5.59375 22.441406 5.988281 C 23.8125 7.910156 24.253906 8.996094 24.386719 9.417969 C 24.421875 9.519531 24.34375 9.621094 24.238281 9.621094 L 14.996094 9.476562 L 5.753906 9.621094 C 5.648438 9.621094 5.570312 9.519531 5.605469 9.417969 Z M 29.039062 21.65625 L 28.925781 14.992188 C 28.851562 13.03125 26.136719 10.527344 26.136719 10.527344 C 26.414062 10.375 26.71875 10.289062 27.035156 10.273438 C 27.480469 10.253906 28.109375 10.101562 27.957031 9.355469 C 27.789062 8.535156 26.535156 8.339844 25.867188 8.292969 C 25.660156 8.28125 25.496094 8.46875 25.535156 8.675781 L 25.769531 9.808594 C 25.785156 9.894531 25.671875 9.9375 25.625 9.863281 L 25.417969 9.511719 C 23.777344 6.699219 23.0625 5.699219 22.457031 5.183594 C 22.1875 4.949219 21.859375 4.785156 21.507812 4.707031 C 18.90625 4.128906 14.996094 4.179688 14.996094 4.179688 C 14.996094 4.179688 11.085938 4.128906 8.484375 4.707031 C 8.132812 4.785156 7.804688 4.949219 7.535156 5.183594 C 6.929688 5.699219 6.214844 6.699219 4.574219 9.511719 L 4.367188 9.863281 C 4.320312 9.9375 4.207031 9.894531 4.222656 9.808594 L 4.457031 8.675781 C 4.496094 8.46875 4.332031 8.28125 4.125 8.292969 C 3.457031 8.339844 2.203125 8.535156 2.035156 9.355469 C 1.882812 10.101562 2.511719 10.253906 2.957031 10.273438 C 3.273438 10.289062 3.578125 10.375 3.855469 10.527344 C 3.855469 10.527344 1.140625 13.03125 1.066406 14.992188 L 0.953125 21.65625 C 0.949219 21.933594 1.058594 22.199219 1.25 22.386719 L 1.25 23.164062 C 1.25 24.09375 2.011719 24.851562 2.9375 24.851562 L 6.03125 24.851562 C 6.660156 24.851562 7.175781 24.335938 7.175781 23.707031 L 7.175781 23.226562 L 22.816406 23.226562 L 22.816406 23.707031 C 22.816406 24.335938 23.332031 24.851562 23.960938 24.851562 L 27.054688 24.851562 C 27.980469 24.851562 28.742188 24.09375 28.742188 23.164062 L 28.742188 22.386719 C 28.933594 22.199219 29.042969 21.933594 29.039062 21.65625 " fill-opacity="1" fill-rule="nonzero"/></g></svg>