<svg xmlns="http://www.w3.org/2000/svg" xmlns:xlink="http://www.w3.org/1999/xlink" width="40" zoomAndPan="magnify" viewBox="0 0 30 30.000001" height="40" preserveAspectRatio="xMidYMid meet" version="1.0"><defs><clipPath id="d15336c9f9"><path d="M 0.507812 3.59375 L 29.492188 3.59375 L 29.492188 25.367188 L 0.507812 25.367188 Z M 0.507812 3.59375 " clip-rule="nonzero"/></clipPath></defs><g clip-path="url(#d15336c9f9)"><path fill="#6E6E6E" d="M 29.417969 14.140625 L 27.769531 10.367188 C 27.625 10.035156 27.296875 9.824219 26.9375 9.824219 L 25.058594 9.824219 C 24.816406 9.824219 24.582031 9.917969 24.410156 10.089844 C 24.242188 10.257812 24.144531 10.492188 24.144531 10.734375 L 24.144531 12.222656 L 23.113281 12.222656 L 23.113281 10.734375 C 23.113281 10.488281 23.019531 10.261719 22.847656 10.089844 C 22.675781 9.917969 22.445312 9.824219 22.203125 9.824219 L 20.097656 9.824219 C 19.847656 9.820312 19.644531 9.621094 19.644531 9.371094 L 19.609375 8.226562 C 19.609375 7 18.59375 5.980469 17.339844 5.980469 L 15.960938 5.980469 L 15.960938 5.414062 L 19.265625 5.414062 C 19.769531 5.414062 20.179688 5.007812 20.179688 4.503906 C 20.179688 4 19.769531 3.59375 19.265625 3.59375 L 14.324219 3.59375 C 14.324219 3.59375 14.324219 3.59375 14.320312 3.59375 C 14.320312 3.59375 14.320312 3.59375 14.316406 3.59375 L 9.378906 3.59375 C 8.875 3.59375 8.464844 4 8.464844 4.503906 C 8.464844 5.007812 8.875 5.414062 9.378906 5.414062 L 12.683594 5.414062 L 12.683594 5.980469 L 8.984375 5.980469 C 7.730469 5.980469 6.710938 6.996094 6.710938 8.253906 C 6.710938 8.234375 6.707031 8.238281 6.707031 8.238281 C 6.707031 8.265625 6.695312 8.292969 6.6875 8.3125 C 6.679688 8.3125 6.667969 8.3125 6.652344 8.3125 L 5.769531 8.3125 C 4.511719 8.3125 3.496094 9.332031 3.496094 10.585938 L 3.496094 13.054688 L 2.332031 13.054688 L 2.332031 8.777344 C 2.332031 8.273438 1.921875 7.867188 1.417969 7.867188 C 0.917969 7.867188 0.507812 8.273438 0.507812 8.777344 L 0.507812 20.613281 C 0.507812 21.117188 0.917969 21.523438 1.417969 21.523438 C 1.921875 21.523438 2.332031 21.117188 2.332031 20.613281 L 2.332031 16.335938 L 3.496094 16.335938 C 3.496094 18.359375 3.496094 19.492188 3.496094 19.492188 C 3.496094 20.75 4.511719 21.765625 5.769531 21.765625 L 8.269531 21.765625 L 12.347656 25.21875 C 12.507812 25.355469 12.722656 25.433594 12.9375 25.433594 L 20.820312 25.433594 C 22.078125 25.433594 23.09375 24.417969 23.09375 23.160156 L 23.09375 21.671875 L 24.128906 21.671875 L 24.128906 23.160156 L 24.15625 23.394531 L 24.167969 23.429688 C 24.273438 23.828125 24.636719 24.105469 25.046875 24.105469 L 26.9375 24.105469 C 27.296875 24.105469 27.625 23.890625 27.769531 23.558594 L 29.417969 19.789062 C 29.464844 19.671875 29.492188 19.550781 29.492188 19.421875 L 29.492188 14.503906 C 29.492188 14.378906 29.464844 14.257812 29.417969 14.140625 Z M 27.671875 19.234375 L 26.339844 22.285156 L 25.949219 22.285156 L 25.949219 21.152344 C 25.949219 20.433594 25.367188 19.851562 24.644531 19.851562 L 22.578125 19.851562 C 21.855469 19.851562 21.273438 20.429688 21.273438 21.152344 L 21.273438 23.160156 C 21.273438 23.414062 21.070312 23.613281 20.820312 23.613281 L 13.269531 23.613281 L 9.191406 20.160156 C 9.027344 20.019531 8.816406 19.945312 8.601562 19.945312 L 5.769531 19.945312 C 5.519531 19.941406 5.316406 19.742188 5.316406 19.492188 C 5.316406 19.492188 5.316406 17.039062 5.316406 14.699219 C 5.316406 14.699219 5.316406 14.695312 5.316406 14.695312 C 5.316406 14.695312 5.316406 14.695312 5.316406 14.691406 L 5.316406 10.585938 C 5.316406 10.335938 5.519531 10.132812 5.769531 10.132812 L 6.652344 10.132812 C 7.457031 10.164062 8.109375 9.609375 8.304688 9.152344 C 8.527344 8.699219 8.523438 8.347656 8.53125 8.273438 C 8.53125 8.003906 8.734375 7.804688 8.984375 7.804688 L 17.339844 7.804688 C 17.585938 7.804688 17.789062 8.003906 17.789062 8.253906 L 17.824219 9.398438 C 17.824219 10.625 18.84375 11.644531 20.097656 11.644531 L 21.292969 11.644531 L 21.292969 12.742188 C 21.292969 13.460938 21.875 14.042969 22.597656 14.046875 L 24.664062 14.046875 C 25.382812 14.046875 25.964844 13.460938 25.96875 12.742188 L 25.96875 11.644531 L 26.339844 11.644531 L 27.671875 14.695312 Z M 16.742188 12.871094 L 14.230469 12.871094 L 12.214844 16.511719 L 14.363281 16.511719 L 12.570312 19.746094 L 17.210938 15.144531 L 14.640625 15.144531 L 16.742188 12.871094 " fill-opacity="1" fill-rule="nonzero"/></g><path fill="#6e6e6e" d="M 8.792969 6.890625 C 8.792969 6.925781 8.765625 6.949219 8.734375 6.949219 C 8.703125 6.949219 8.675781 6.925781 8.675781 6.890625 C 8.675781 6.859375 8.703125 6.835938 8.734375 6.835938 C 8.765625 6.835938 8.792969 6.859375 8.792969 6.890625 " fill-opacity="1" fill-rule="nonzero"/></svg>