<svg xmlns="http://www.w3.org/2000/svg" xmlns:xlink="http://www.w3.org/1999/xlink" width="40" zoomAndPan="magnify" viewBox="0 0 30 30.000001" height="40" preserveAspectRatio="xMidYMid meet" version="1.0"><defs><clipPath id="651e43a2d3"><path d="M 2.878906 0.921875 L 26.820312 0.921875 L 26.820312 27.777344 L 2.878906 27.777344 Z M 2.878906 0.921875 " clip-rule="nonzero"/></clipPath></defs><g clip-path="url(#651e43a2d3)"><path fill="#6e6e6e" d="M 26.398438 10.367188 C 26.199219 10.425781 25.988281 10.417969 25.792969 10.347656 C 25.542969 10.257812 25.339844 10.074219 25.230469 9.835938 C 25.003906 9.359375 25.191406 8.796875 25.644531 8.542969 L 26.398438 9.226562 Z M 17.296875 12.871094 L 5.949219 12.871094 L 5.949219 2.65625 L 17.296875 2.65625 Z M 21.160156 4.007812 C 21.027344 4.15625 21.039062 4.382812 21.1875 4.515625 L 25.09375 8.046875 C 24.460938 8.523438 24.226562 9.394531 24.578125 10.140625 C 24.773438 10.554688 25.117188 10.871094 25.546875 11.023438 C 25.738281 11.09375 25.933594 11.125 26.128906 11.125 C 26.21875 11.125 26.308594 11.121094 26.398438 11.105469 L 26.398438 21.578125 C 26.398438 22.871094 25.34375 23.925781 24.050781 23.925781 C 22.753906 23.925781 21.703125 22.871094 21.703125 21.578125 L 21.703125 12.03125 C 21.703125 11.027344 21.3125 10.085938 20.601562 9.375 C 20.144531 8.917969 19.589844 8.59375 18.980469 8.421875 L 18.980469 2.246094 C 18.980469 1.515625 18.390625 0.925781 17.660156 0.925781 L 5.582031 0.925781 C 4.851562 0.925781 4.257812 1.515625 4.257812 2.246094 L 4.257812 15.253906 L 4.261719 15.253906 L 4.261719 23.996094 L 4.257812 23.996094 L 4.257812 25.886719 L 3.34375 25.886719 C 3.085938 25.886719 2.878906 26.097656 2.878906 26.355469 L 2.878906 27.640625 C 2.878906 27.898438 3.085938 28.109375 3.34375 28.109375 L 19.902344 28.109375 C 20.160156 28.109375 20.367188 27.898438 20.367188 27.640625 L 20.367188 26.355469 C 20.367188 26.097656 20.160156 25.886719 19.902344 25.886719 L 18.980469 25.886719 L 18.980469 9.179688 C 20.148438 9.601562 20.980469 10.722656 20.980469 12.03125 L 20.980469 21.578125 C 20.980469 23.269531 22.359375 24.644531 24.050781 24.644531 C 25.742188 24.644531 27.117188 23.269531 27.117188 21.578125 L 27.117188 8.90625 L 21.667969 3.980469 C 21.523438 3.847656 21.292969 3.859375 21.160156 4.007812 " fill-opacity="1" fill-rule="nonzero"/></g></svg>