<svg xmlns="http://www.w3.org/2000/svg" xmlns:xlink="http://www.w3.org/1999/xlink" width="1200" zoomAndPan="magnify" viewBox="0 0 900 899.99999" height="1200" preserveAspectRatio="xMidYMid meet" version="1.0"><defs><clipPath id="16bdd2b3b0"><path d="M 450 0 C 201.472656 0 0 201.472656 0 450 C 0 698.527344 201.472656 900 450 900 C 698.527344 900 900 698.527344 900 450 C 900 201.472656 698.527344 0 450 0 Z M 450 0 " clip-rule="nonzero"/></clipPath><clipPath id="6af112e1eb"><path d="M 174 254 L 517.34375 254 L 517.34375 376 L 174 376 Z M 174 254 " clip-rule="nonzero"/></clipPath><clipPath id="0785de79f0"><path d="M 86 354 L 517.34375 354 L 517.34375 438 L 86 438 Z M 86 354 " clip-rule="nonzero"/></clipPath><clipPath id="019191d72e"><path d="M 82 447 L 517.34375 447 L 517.34375 622 L 82 622 Z M 82 447 " clip-rule="nonzero"/></clipPath><clipPath id="7bf0346995"><path d="M 225 484 L 517.34375 484 L 517.34375 575 L 225 575 Z M 225 484 " clip-rule="nonzero"/></clipPath><clipPath id="11b1426b5d"><path d="M 67.242188 358 L 166 358 L 166 401 L 67.242188 401 Z M 67.242188 358 " clip-rule="nonzero"/></clipPath><clipPath id="fb0b09ef87"><path d="M 382.957031 254 L 725 254 L 725 376 L 382.957031 376 Z M 382.957031 254 " clip-rule="nonzero"/></clipPath><clipPath id="d38a6f8da2"><path d="M 382.957031 354 L 814 354 L 814 438 L 382.957031 438 Z M 382.957031 354 " clip-rule="nonzero"/></clipPath><clipPath id="5b9b1a0674"><path d="M 382.957031 447 L 818 447 L 818 622 L 382.957031 622 Z M 382.957031 447 " clip-rule="nonzero"/></clipPath><clipPath id="e7b03d51ba"><path d="M 382.957031 484 L 675 484 L 675 575 L 382.957031 575 Z M 382.957031 484 " clip-rule="nonzero"/></clipPath><clipPath id="ee6311d2a0"><path d="M 734 358 L 832.726562 358 L 832.726562 401 L 734 401 Z M 734 358 " clip-rule="nonzero"/></clipPath><clipPath id="a256e46f5f"><path d="M 377.804688 560 L 524 560 L 524 606.835938 L 377.804688 606.835938 Z M 377.804688 560 " clip-rule="nonzero"/></clipPath><clipPath id="f89d02923a"><path d="M 459.148438 591.828125 C 433.988281 591.175781 433.007812 589.707031 432.679688 588.398438 C 432.351562 587.253906 432.515625 585.621094 433.171875 584.640625 C 433.660156 583.660156 434.3125 583.007812 435.949219 582.1875 C 440.523438 579.902344 461.273438 575.328125 466.339844 575.652344 C 468.136719 575.816406 468.953125 576.144531 469.933594 576.960938 C 470.75 577.613281 471.570312 578.921875 471.730469 580.066406 C 471.730469 581.699219 471.078125 583.824219 469.117188 585.457031 C 464.542969 589.214844 443.789062 594.605469 437.417969 594.28125 C 434.640625 594.117188 432.515625 593.136719 431.535156 591.828125 C 430.71875 590.847656 430.71875 589.378906 430.882812 588.398438 C 431.210938 587.253906 431.699219 586.4375 432.84375 585.457031 C 435.292969 583.007812 443.953125 578.59375 447.875 576.632812 C 450.328125 575.488281 451.796875 574.507812 453.921875 574.507812 C 456.210938 574.347656 460.128906 574.835938 461.4375 576.46875 C 462.746094 578.105469 462.746094 581.699219 462.089844 583.984375 C 461.4375 586.601562 459.476562 589.050781 457.191406 591.011719 C 454.085938 593.625 447.710938 597.058594 444.117188 596.730469 C 441.503906 596.566406 438.398438 594.445312 437.582031 592.320312 C 436.765625 590.359375 437.910156 586.601562 439.378906 584.476562 C 441.011719 581.863281 444.769531 579.902344 448.203125 578.429688 C 452.289062 576.632812 457.191406 575.652344 462.089844 575 C 467.484375 574.019531 475.816406 572.058594 479.738281 573.691406 C 482.515625 574.835938 485.128906 577.941406 485.128906 580.066406 C 485.128906 581.863281 483.167969 583.984375 481.371094 585.128906 C 479.410156 586.4375 476.308594 586.601562 473.039062 586.4375 C 468.136719 586.4375 459.148438 584.148438 455.066406 582.84375 C 452.777344 582.1875 451.144531 582.027344 450 580.554688 C 448.855469 578.757812 448.367188 574.347656 449.347656 572.546875 C 450 571.078125 451.308594 570.425781 453.59375 569.769531 C 458.496094 568.136719 475.816406 566.828125 480.71875 567.808594 C 482.84375 568.300781 483.988281 568.953125 484.804688 570.097656 C 485.621094 571.242188 485.785156 573.367188 485.457031 574.671875 C 484.96875 575.816406 484.3125 576.632812 483.007812 577.449219 C 479.738281 579.410156 467.320312 582.351562 463.5625 582.027344 C 462.089844 581.863281 461.109375 581.371094 460.292969 580.554688 C 459.476562 579.902344 458.824219 578.429688 458.660156 577.285156 C 458.496094 576.304688 458.988281 574.835938 459.640625 573.855469 C 460.292969 572.875 461.109375 572.386719 462.582031 571.894531 C 466.828125 570.425781 482.351562 568.789062 487.417969 569.769531 C 489.707031 570.097656 491.992188 572.222656 492.15625 572.222656 C 492.15625 572.058594 488.5625 570.097656 488.726562 569.769531 C 488.726562 569.605469 490.359375 569.933594 491.011719 570.425781 C 492.15625 571.078125 493.628906 572.875 493.789062 574.183594 C 494.117188 575.488281 493.789062 576.796875 492.972656 577.777344 C 491.667969 579.410156 486.929688 581.046875 484.804688 581.207031 C 483.332031 581.371094 482.1875 581.207031 481.210938 580.554688 C 480.230469 580.066406 479.25 578.921875 478.921875 577.777344 C 478.429688 576.632812 478.59375 575.164062 479.085938 574.019531 C 479.410156 573.039062 480.066406 572.222656 481.535156 571.40625 C 485.457031 569.445312 498.691406 567.648438 505.71875 567.15625 C 511.109375 566.828125 516.992188 566.339844 520.097656 567.808594 C 521.894531 568.625 523.203125 570.097656 523.691406 571.566406 C 524.183594 573.039062 523.855469 575.164062 522.710938 576.632812 C 520.75 579.085938 513.234375 579.574219 510.292969 582.1875 C 507.84375 584.3125 506.863281 590.359375 505.066406 590.523438 C 503.921875 590.6875 501.144531 587.089844 501.46875 586.109375 C 501.632812 585.128906 504.574219 584.3125 506.046875 584.148438 C 507.351562 584.148438 508.988281 584.476562 510.128906 585.128906 C 511.109375 585.785156 512.253906 587.089844 512.417969 588.398438 C 512.746094 589.867188 512.582031 592.15625 511.273438 593.625 C 509.476562 596.078125 502.289062 599.835938 499.183594 599.835938 C 497.222656 599.835938 495.425781 598.367188 494.609375 597.222656 C 493.789062 596.078125 493.464844 594.445312 493.628906 593.136719 C 493.953125 591.992188 494.609375 590.523438 495.75 589.707031 C 496.894531 588.5625 498.855469 588.234375 500.980469 587.90625 C 504.410156 587.253906 511.765625 585.945312 514.707031 587.089844 C 516.503906 587.90625 517.808594 589.707031 517.972656 591.339844 C 518.136719 593.136719 516.992188 595.914062 515.359375 597.222656 C 513.234375 598.855469 508.167969 600.164062 505.882812 599.671875 C 504.410156 599.347656 503.429688 598.039062 502.777344 596.894531 C 502.289062 595.914062 501.960938 594.28125 502.289062 592.972656 C 502.777344 591.503906 504.085938 589.707031 505.71875 588.886719 C 508.167969 587.746094 513.726562 587.253906 515.847656 588.726562 C 517.320312 589.707031 518.136719 592.972656 517.972656 594.769531 C 517.808594 596.40625 516.503906 597.875 515.523438 598.855469 C 514.378906 599.835938 513.070312 600.652344 511.765625 600.488281 C 509.96875 600.324219 507.1875 598.855469 506.207031 597.058594 C 504.738281 594.605469 504.574219 587.089844 505.882812 586.109375 C 507.027344 585.457031 512.089844 588.886719 511.929688 589.214844 C 511.765625 589.707031 505.066406 589.378906 503.269531 588.070312 C 501.796875 587.089844 501.144531 584.964844 500.980469 583.167969 C 500.980469 581.371094 501.796875 577.613281 502.941406 577.285156 C 504.410156 576.796875 509.476562 581.371094 509.148438 582.1875 C 508.824219 583.007812 506.535156 582.679688 503.59375 582.679688 C 491.339844 583.167969 430.554688 583.984375 408.988281 581.863281 C 397.550781 580.71875 387.253906 580.226562 383.171875 577.125 C 381.210938 575.652344 380.066406 573.203125 380.230469 571.566406 C 380.390625 569.769531 382.351562 567.648438 384.476562 566.828125 C 387.089844 565.6875 392.8125 566.992188 396.078125 567.484375 C 398.203125 567.972656 399.835938 568.300781 401.472656 569.28125 C 403.105469 570.261719 405.230469 571.894531 405.882812 573.691406 C 406.371094 575.652344 405.390625 579.085938 404.25 581.046875 C 402.941406 582.84375 401.144531 583.660156 398.855469 584.964844 C 395.75 586.601562 387.582031 590.523438 386.4375 589.378906 C 385.621094 588.5625 387.253906 584.640625 388.398438 583.332031 C 389.542969 582.1875 391.339844 581.371094 393.136719 581.371094 C 395.75 581.535156 401.144531 583.660156 402.289062 585.785156 C 403.429688 587.746094 402.777344 591.011719 401.472656 592.808594 C 400 595.097656 393.628906 598.367188 392.648438 597.710938 C 391.832031 597.058594 393.136719 592.15625 394.28125 591.175781 C 394.933594 590.359375 396.40625 590.195312 397.386719 590.359375 C 398.691406 590.6875 400.980469 592.320312 401.472656 593.789062 C 402.125 595.425781 401.632812 598.367188 400.164062 600.164062 C 397.710938 603.105469 388.070312 606.863281 384.152344 606.535156 C 381.699219 606.371094 379.410156 605.066406 378.433594 603.59375 C 377.613281 602.285156 377.941406 599.671875 378.433594 598.367188 C 379.085938 597.222656 379.902344 596.566406 381.535156 595.75 C 384.804688 594.117188 392.320312 593.953125 399.511719 592.15625 C 409.96875 589.378906 438.5625 582.351562 438.234375 579.246094 C 437.910156 575.816406 393.464844 577.449219 387.089844 573.527344 C 385.132812 572.222656 384.3125 570.75 384.152344 569.28125 C 383.988281 567.808594 384.476562 565.6875 385.949219 564.542969 C 388.5625 562.417969 397.386719 561.4375 401.960938 561.925781 C 405.554688 562.253906 409.640625 563.726562 411.273438 565.359375 C 412.253906 566.339844 412.746094 567.808594 412.582031 569.117188 C 412.417969 570.585938 411.765625 572.710938 409.96875 573.691406 C 406.046875 575.980469 389.542969 575.816406 384.96875 573.691406 C 382.515625 572.710938 380.882812 570.585938 380.71875 568.789062 C 380.554688 566.992188 381.371094 564.542969 383.824219 563.070312 C 391.011719 558.824219 434.152344 560.128906 441.667969 562.417969 C 443.628906 563.070312 444.445312 563.726562 445.097656 564.867188 C 445.914062 565.847656 446.242188 567.648438 446.078125 568.953125 C 445.914062 570.261719 445.097656 571.730469 444.117188 572.710938 C 443.136719 573.527344 442.15625 573.855469 440.195312 574.183594 C 435.621094 575 420.425781 575.164062 416.175781 573.855469 C 414.378906 573.203125 413.5625 572.546875 412.746094 571.566406 C 412.089844 570.425781 411.4375 568.789062 411.765625 567.484375 C 412.253906 565.847656 413.726562 563.726562 416.175781 562.582031 C 421.078125 560.292969 437.582031 560.457031 442.320312 561.273438 C 444.28125 561.4375 445.261719 561.765625 446.242188 562.746094 C 447.222656 563.5625 448.039062 565.03125 448.203125 566.339844 C 448.367188 567.648438 447.875 569.28125 447.222656 570.425781 C 446.40625 571.40625 445.589844 572.222656 443.789062 572.710938 C 438.234375 574.347656 414.050781 575.488281 408.988281 572.222656 C 406.699219 570.914062 405.71875 568.300781 405.882812 566.503906 C 406.046875 564.707031 407.515625 562.90625 410.132812 561.765625 C 417.484375 558.496094 449.183594 561.109375 460.128906 562.417969 C 465.523438 563.070312 470.097656 563.070312 472.058594 565.03125 C 473.367188 566.175781 473.855469 568.464844 473.367188 569.933594 C 473.039062 571.566406 468.789062 574.183594 468.789062 574.183594 C 468.789062 574.347656 472.058594 571.894531 471.894531 571.894531 C 471.894531 571.730469 467.648438 574.507812 465.523438 575 C 463.726562 575.488281 462.910156 575.164062 460.128906 575.328125 C 450.816406 575.488281 409.152344 577.125 400.816406 575.164062 C 398.53125 574.507812 397.386719 574.183594 396.570312 572.875 C 395.75 571.566406 395.75 568.300781 396.570312 566.992188 C 397.386719 565.6875 398.53125 565.359375 400.816406 564.707031 C 409.476562 562.582031 454.085938 563.726562 464.542969 565.195312 C 468.136719 565.6875 470.425781 565.6875 471.570312 567.320312 C 472.710938 568.953125 472.058594 573.691406 470.75 575.164062 C 469.769531 576.46875 467.972656 576.46875 465.359375 576.796875 C 459.148438 577.941406 440.195312 577.125 433.007812 578.105469 C 429.25 578.59375 426.632812 580.226562 424.671875 579.902344 C 423.367188 579.902344 422.386719 579.410156 421.730469 578.59375 C 420.914062 577.613281 420.425781 575.652344 420.589844 574.347656 C 420.914062 573.203125 421.730469 571.894531 423.367188 571.078125 C 428.269531 569.117188 451.632812 570.75 456.210938 573.367188 C 457.84375 574.347656 458.496094 575.816406 458.660156 577.125 C 458.824219 578.429688 458.332031 579.902344 457.027344 581.207031 C 454.902344 583.332031 445.914062 587.417969 444.609375 586.273438 C 443.628906 585.621094 444.28125 581.371094 445.75 580.226562 C 447.875 578.757812 455.230469 579.902344 458.496094 581.535156 C 461.109375 582.679688 464.214844 585.457031 464.214844 587.582031 C 464.214844 589.542969 460.949219 592.15625 458.988281 593.625 C 457.351562 594.769531 455.71875 595.261719 453.429688 596.078125 C 450.488281 597.222656 445.589844 599.835938 442.648438 599.507812 C 440.6875 599.347656 438.5625 597.875 437.746094 596.566406 C 437.089844 595.585938 437.089844 594.117188 437.417969 592.972656 C 437.910156 591.664062 438.890625 590.359375 440.851562 589.542969 C 444.933594 587.90625 459.96875 589.214844 464.214844 590.03125 C 465.847656 590.359375 466.667969 590.6875 467.648438 591.339844 C 468.464844 591.992188 469.28125 593.300781 469.28125 594.445312 C 469.28125 595.914062 468.136719 598.367188 466.503906 599.507812 C 464.707031 600.980469 460.457031 601.632812 458.167969 601.46875 C 456.371094 601.304688 454.574219 600.980469 453.757812 599.835938 C 452.777344 598.527344 452.289062 595.097656 453.105469 593.789062 C 454.085938 592.484375 457.351562 591.339844 458.824219 591.664062 C 460.292969 591.992188 461.765625 593.625 462.253906 594.933594 C 462.582031 596.242188 462.253906 598.527344 461.273438 599.507812 C 460.292969 600.816406 457.027344 601.632812 455.390625 601.144531 C 454.085938 600.652344 452.613281 598.855469 452.449219 597.386719 C 452.289062 595.914062 453.59375 593.136719 455.230469 591.992188 C 457.351562 590.359375 463.070312 589.378906 465.523438 590.195312 C 467.320312 590.847656 468.953125 592.972656 469.28125 594.445312 C 469.445312 596.078125 468.464844 598.367188 466.503906 599.507812 C 462.582031 601.796875 446.078125 600.980469 441.503906 599.507812 C 439.542969 598.691406 438.234375 597.875 437.746094 596.566406 C 437.089844 595.097656 437.417969 592.320312 438.726562 590.847656 C 440.523438 588.726562 446.40625 587.417969 449.347656 586.765625 C 451.308594 586.273438 453.105469 585.457031 454.410156 586.109375 C 455.882812 586.925781 458.167969 590.6875 457.515625 591.664062 C 456.535156 593.136719 443.136719 591.339844 440.03125 588.5625 C 437.746094 586.601562 436.601562 582.515625 437.417969 580.390625 C 438.070312 578.429688 441.175781 577.449219 443.789062 576.304688 C 447.222656 574.835938 453.921875 572.222656 456.210938 573.367188 C 457.84375 574.347656 458.824219 577.777344 458.332031 579.410156 C 458.007812 580.71875 456.046875 581.699219 453.921875 582.351562 C 449.511719 583.660156 438.070312 582.84375 432.351562 582.027344 C 428.429688 581.535156 424.511719 580.71875 422.550781 579.246094 C 421.40625 578.265625 420.589844 576.632812 420.589844 575.488281 C 420.425781 574.507812 420.914062 573.203125 421.570312 572.386719 C 422.386719 571.40625 423.367188 570.914062 425.492188 570.261719 C 431.699219 568.300781 464.214844 562.582031 467.15625 566.339844 C 468.628906 568.136719 467.320312 572.546875 464.542969 574.671875 C 457.027344 580.066406 408.824219 576.46875 400.816406 575.164062 C 399.019531 574.835938 398.203125 574.671875 397.386719 573.855469 C 396.40625 572.875 395.589844 570.585938 395.75 569.28125 C 395.75 568.136719 396.570312 566.828125 397.386719 566.011719 C 398.367188 565.195312 399.019531 565.03125 400.816406 564.707031 C 408.496094 563.234375 450.816406 562.746094 459.3125 564.214844 C 461.929688 564.707031 462.417969 566.011719 464.050781 566.011719 C 465.847656 566.011719 468.300781 563.070312 469.933594 563.5625 C 471.570312 563.886719 473.367188 566.992188 473.527344 568.625 C 473.691406 569.933594 473.039062 571.40625 472.222656 572.386719 C 471.40625 573.203125 470.75 573.691406 468.789062 574.183594 C 461.109375 575.980469 416.175781 576.796875 408.988281 572.222656 C 406.535156 570.75 405.71875 568.300781 405.882812 566.503906 C 406.046875 564.707031 407.679688 562.90625 410.132812 561.765625 C 415.6875 559.148438 436.765625 560.292969 442.320312 561.273438 C 444.28125 561.601562 445.261719 561.765625 446.242188 562.746094 C 447.222656 563.5625 448.039062 565.03125 448.203125 566.339844 C 448.367188 567.648438 447.875 569.28125 447.222656 570.425781 C 446.40625 571.40625 445.589844 572.222656 443.789062 572.710938 C 439.050781 574.347656 420.75 575.164062 416.175781 573.855469 C 414.378906 573.367188 413.5625 572.546875 412.746094 571.566406 C 412.089844 570.425781 411.4375 568.789062 411.765625 567.484375 C 412.253906 565.847656 413.726562 563.726562 416.175781 562.582031 C 420.914062 560.457031 437.253906 561.109375 441.667969 562.417969 C 443.464844 563.070312 444.445312 563.726562 445.097656 564.867188 C 445.914062 565.847656 446.40625 567.648438 446.078125 568.953125 C 445.75 570.585938 444.445312 572.710938 441.667969 574.019531 C 433.660156 577.449219 393.953125 575.328125 386.273438 573.855469 C 384.3125 573.527344 383.496094 573.367188 382.515625 572.386719 C 381.535156 571.40625 380.554688 568.953125 380.71875 567.484375 C 380.882812 566.175781 381.699219 564.707031 382.679688 563.886719 C 383.660156 563.070312 384.640625 562.746094 386.4375 562.417969 C 390.6875 561.765625 403.429688 561.4375 407.84375 563.398438 C 410.132812 564.378906 411.929688 566.175781 412.417969 567.808594 C 412.910156 569.117188 412.417969 570.75 411.765625 571.730469 C 411.109375 572.875 410.292969 573.691406 408.660156 574.347656 C 404.902344 575.652344 392.320312 575.816406 388.398438 574.019531 C 386.113281 573.039062 384.640625 570.914062 384.152344 569.28125 C 383.824219 567.972656 384.476562 566.503906 385.132812 565.523438 C 385.785156 564.378906 386.601562 563.726562 388.398438 563.234375 C 393.464844 561.925781 411.601562 564.867188 421.894531 567.320312 C 430.71875 569.28125 442.972656 571.566406 446.242188 575.652344 C 447.875 578.105469 447.875 581.699219 446.730469 583.824219 C 445.261719 586.4375 441.175781 587.417969 436.4375 589.542969 C 426.796875 593.789062 400.652344 602.941406 391.503906 605.226562 C 387.417969 606.207031 385.132812 607.027344 382.84375 606.535156 C 381.046875 606.207031 379.25 604.902344 378.433594 603.59375 C 377.777344 602.449219 377.777344 600.816406 377.941406 599.671875 C 378.269531 598.367188 379.085938 597.386719 380.230469 596.40625 C 382.679688 594.605469 388.890625 592.484375 392.320312 591.503906 C 394.769531 591.011719 397.058594 590.03125 398.691406 590.847656 C 400.328125 591.664062 401.796875 594.769531 401.960938 596.566406 C 401.960938 597.875 401.144531 599.347656 400.164062 600.164062 C 399.183594 600.980469 398.039062 601.796875 396.40625 601.796875 C 393.628906 601.632812 386.601562 599.183594 385.132812 596.566406 C 383.988281 594.445312 384.96875 589.378906 386.4375 588.234375 C 387.746094 587.253906 391.011719 587.582031 392.320312 588.398438 C 393.464844 589.378906 394.609375 592.484375 393.953125 593.136719 C 392.972656 594.28125 385.785156 592.484375 383.171875 591.011719 C 381.371094 589.867188 379.574219 588.070312 379.25 586.273438 C 378.921875 584.148438 380.71875 580.71875 382.84375 578.757812 C 385.457031 576.304688 393.136719 572.875 395.261719 574.019531 C 396.730469 574.671875 397.710938 578.757812 396.894531 579.574219 C 395.589844 581.046875 384.476562 578.429688 382.027344 576.304688 C 380.554688 575.164062 379.902344 573.039062 380.230469 571.566406 C 380.554688 569.933594 382.191406 567.648438 384.476562 566.828125 C 389.050781 565.359375 397.875 570.585938 408.988281 571.730469 C 431.371094 573.855469 501.960938 563.886719 511.273438 572.222656 C 514.378906 574.835938 513.070312 582.679688 512.582031 582.84375 C 512.089844 583.007812 509.476562 578.265625 509.804688 577.941406 C 510.292969 577.449219 515.6875 580.390625 516.828125 582.1875 C 517.808594 583.824219 517.320312 585.785156 517.320312 587.90625 C 517.320312 590.6875 517.648438 595.75 516.339844 597.875 C 515.359375 599.347656 513.234375 600.488281 511.765625 600.488281 C 510.128906 600.488281 507.84375 599.507812 506.863281 598.203125 C 505.882812 596.894531 505.554688 594.605469 506.046875 592.972656 C 506.535156 591.011719 508.824219 588.5625 510.457031 587.90625 C 512.089844 587.253906 514.542969 587.582031 515.847656 588.726562 C 517.15625 589.707031 518.300781 593.136719 517.972656 594.769531 C 517.648438 596.40625 515.847656 597.875 514.214844 598.691406 C 512.089844 599.671875 507.84375 600.324219 505.882812 599.671875 C 504.574219 599.183594 503.429688 598.039062 502.777344 596.894531 C 502.289062 595.914062 501.796875 594.28125 502.289062 592.972656 C 502.941406 591.339844 505.390625 589.214844 507.1875 588.234375 C 508.660156 587.253906 510.457031 586.765625 511.929688 586.765625 C 513.398438 586.601562 514.867188 587.089844 515.847656 587.90625 C 516.992188 588.886719 518.136719 591.175781 517.972656 592.644531 C 517.972656 594.28125 516.992188 596.078125 515.359375 597.222656 C 512.253906 599.183594 502.941406 600.652344 499.183594 599.835938 C 496.894531 599.183594 494.609375 597.546875 493.953125 595.914062 C 493.300781 594.28125 494.28125 591.339844 495.75 589.707031 C 497.710938 587.253906 503.429688 584.640625 506.046875 584.148438 C 507.679688 583.984375 508.988281 584.476562 510.128906 585.128906 C 511.109375 585.785156 512.253906 587.089844 512.417969 588.398438 C 512.746094 590.03125 511.765625 593.300781 510.292969 594.605469 C 508.660156 596.078125 504.902344 596.40625 502.449219 596.40625 C 500.488281 596.242188 498.039062 596.242188 496.730469 594.933594 C 495.097656 593.300781 493.789062 589.378906 494.445312 586.273438 C 495.097656 582.027344 501.308594 575.164062 504.410156 572.386719 C 506.046875 570.75 507.351562 570.261719 509.3125 569.445312 C 512.253906 568.464844 517.648438 567.15625 520.097656 567.808594 C 521.566406 568.136719 522.546875 569.117188 523.203125 570.261719 C 523.855469 571.566406 524.183594 574.183594 523.367188 575.488281 C 522.386719 577.285156 519.117188 578.59375 516.011719 579.246094 C 510.949219 580.390625 501.796875 578.105469 495.75 578.59375 C 490.847656 579.085938 485.128906 582.027344 482.351562 581.046875 C 480.554688 580.554688 479.410156 579.085938 478.921875 577.777344 C 478.429688 576.632812 478.59375 575.164062 479.085938 574.019531 C 479.410156 573.039062 480.390625 572.058594 481.535156 571.40625 C 483.332031 570.425781 486.765625 569.769531 488.726562 569.769531 C 490.03125 569.933594 491.175781 570.261719 492.15625 571.078125 C 492.972656 571.894531 493.789062 573.039062 493.789062 574.183594 C 493.789062 575.816406 493.136719 578.105469 491.175781 579.410156 C 486.929688 582.351562 468.789062 583.496094 463.5625 582.027344 C 461.273438 581.371094 459.640625 579.902344 458.988281 578.59375 C 458.332031 577.449219 458.660156 575.980469 458.988281 575 C 459.476562 573.855469 460.128906 573.039062 461.4375 572.222656 C 464.707031 570.425781 476.632812 567.320312 480.554688 567.808594 C 482.515625 568.136719 483.988281 568.953125 484.804688 570.097656 C 485.621094 571.242188 485.949219 573.367188 485.457031 574.671875 C 484.804688 576.144531 483.007812 577.125 480.71875 577.941406 C 475.816406 579.738281 457.679688 581.863281 455.71875 579.410156 C 454.738281 578.105469 455.882812 574.347656 457.679688 573.203125 C 460.621094 571.40625 474.671875 573.855469 476.632812 576.796875 C 477.777344 578.429688 476.960938 582.027344 475.164062 583.660156 C 472.550781 586.109375 462.910156 584.804688 458.007812 586.273438 C 454.25 587.253906 449.511719 591.339844 448.039062 590.523438 C 447.058594 589.867188 447.222656 586.765625 447.710938 585.128906 C 448.367188 583.332031 450.980469 580.226562 452.289062 580.390625 C 453.429688 580.554688 455.390625 583.332031 454.902344 584.640625 C 454.25 587.089844 443.464844 588.726562 440.195312 590.6875 C 438.5625 591.828125 437.910156 593.953125 436.601562 594.28125 C 435.292969 594.445312 433.171875 593.625 432.191406 592.808594 C 431.371094 591.992188 430.71875 590.6875 430.882812 589.542969 C 430.882812 588.070312 431.863281 586.273438 433.824219 584.804688 C 438.726562 581.207031 461.109375 575.488281 466.339844 575.652344 C 468.136719 575.816406 468.953125 576.144531 469.933594 576.960938 C 470.75 577.613281 471.570312 578.921875 471.730469 580.066406 C 471.894531 581.207031 471.570312 582.679688 470.914062 583.660156 C 470.261719 584.640625 469.609375 585.128906 467.972656 585.785156 C 463.234375 587.90625 442.320312 593.464844 437.089844 592.320312 C 434.96875 591.992188 433.660156 590.847656 433.007812 589.542969 C 432.351562 588.234375 432.351562 585.945312 433.171875 584.640625 C 433.824219 583.332031 435.621094 582.351562 437.910156 581.699219 C 442.484375 580.390625 456.371094 580.554688 460.292969 581.863281 C 461.929688 582.351562 462.582031 583.007812 463.234375 583.824219 C 463.890625 584.804688 464.214844 586.273438 464.214844 587.417969 C 464.050781 588.398438 463.234375 589.867188 462.417969 590.523438 C 461.601562 591.339844 459.148438 591.828125 459.148438 591.828125 " clip-rule="nonzero"/></clipPath><clipPath id="049a53e6ea"><path d="M 371.589844 572.226562 L 528.699219 572.226562 L 528.699219 601.949219 L 371.589844 601.949219 Z M 371.589844 572.226562 " clip-rule="nonzero"/></clipPath><clipPath id="883010327d"><path d="M 413.242188 562.421875 L 425.761719 562.421875 L 425.761719 601.921875 L 413.242188 601.921875 Z M 413.242188 562.421875 " clip-rule="nonzero"/></clipPath><clipPath id="a349b7571d"><path d="M 424.660156 567.8125 C 425.363281 598.484375 424.660156 600.074219 423.25 600.953125 C 421.839844 601.835938 419.371094 602.1875 417.785156 601.484375 C 416.375 600.953125 414.609375 598.839844 414.257812 597.25 C 413.90625 595.664062 414.433594 593.199219 415.667969 591.964844 C 417.078125 590.730469 420.957031 590.199219 422.71875 590.90625 C 424.304688 591.609375 425.539062 593.902344 425.714844 595.488281 C 425.894531 597.074219 425.011719 599.542969 423.777344 600.601562 C 422.542969 601.660156 419.898438 602.1875 418.3125 601.660156 C 416.902344 601.304688 415.316406 600.074219 414.433594 597.957031 C 412.496094 593.726562 413.730469 581.386719 413.730469 575.570312 C 413.730469 571.867188 413.375 568.695312 414.082031 566.402344 C 414.609375 564.992188 415.140625 563.933594 416.195312 563.40625 C 417.429688 562.699219 419.898438 562.171875 421.132812 562.699219 C 422.71875 563.40625 424.660156 567.8125 424.660156 567.8125 " clip-rule="nonzero"/></clipPath><clipPath id="cfad6ca210"><path d="M 412.714844 562.390625 L 424.316406 562.390625 L 424.316406 577.960938 L 412.714844 577.960938 Z M 412.714844 562.390625 " clip-rule="nonzero"/></clipPath><clipPath id="eaa76ff8cb"><path d="M 424.304688 568.695312 C 421.132812 577.332031 418.839844 578.214844 417.429688 577.859375 C 415.84375 577.332031 413.375 574.863281 413.023438 573.101562 C 412.671875 571.691406 413.730469 569.398438 414.785156 568.339844 C 415.84375 567.460938 418.3125 566.929688 419.722656 567.285156 C 421.132812 567.636719 422.894531 569.222656 423.425781 570.808594 C 423.777344 572.394531 422.71875 575.746094 421.308594 576.980469 C 420.074219 577.859375 417.785156 578.035156 416.375 577.507812 C 414.964844 576.980469 413.550781 575.214844 413.023438 573.628906 C 412.496094 571.867188 413.023438 568.695312 413.730469 566.929688 C 414.257812 565.34375 415.492188 563.582031 416.726562 562.875 C 417.785156 562.347656 419.371094 562.347656 420.429688 562.699219 C 421.660156 563.050781 422.894531 563.933594 423.425781 564.992188 C 424.128906 565.875 424.304688 568.695312 424.304688 568.695312 " clip-rule="nonzero"/></clipPath></defs><g clip-path="url(#16bdd2b3b0)"><rect x="-90" width="1080" fill="#01172f" y="-89.999999" height="1079.999988" fill-opacity="1"/></g><g clip-path="url(#6af112e1eb)"><path fill="#fdc221" d="M 174.972656 375.226562 C 175.804688 374.867188 178.472656 371.953125 182.734375 365.769531 C 186.996094 359.585938 192.714844 350.0625 199.773438 337.152344 C 206.832031 324.242188 215.285156 307.972656 220.5625 297.6875 C 225.835938 287.402344 227.210938 285.417969 228.476562 283.894531 C 229.738281 282.371094 230.878906 281.308594 231.863281 280.695312 C 232.851562 280.078125 233.628906 279.78125 234.785156 279.507812 C 235.941406 279.238281 237.210938 278.992188 238.546875 278.769531 C 239.882812 278.550781 241.289062 278.371094 242.765625 278.242188 C 244.242188 278.113281 245.792969 278.027344 253.789062 277.621094 C 261.785156 277.210938 274.710938 276.527344 285.613281 275.945312 C 296.519531 275.363281 305.394531 274.839844 312.226562 274.457031 C 319.054688 274.074219 323.808594 273.890625 334.09375 273.632812 C 344.378906 273.378906 361.261719 272.929688 424.265625 270.8125 C 487.269531 268.695312 497.902344 267.800781 507.59375 266.9375 C 517.285156 266.074219 526.203125 265.21875 534.351562 264.328125 C 542.5 263.433594 549.878906 262.460938 555.035156 261.5625 C 560.191406 260.664062 560.191406 260.664062 556.746094 260.707031 C 556.746094 260.707031 549.832031 259.105469 542.140625 258.453125 C 534.449219 257.800781 525.984375 257.382812 516.742188 257.105469 C 507.5 256.824219 497.484375 256.6875 460.804688 255.753906 C 424.121094 254.820312 361.054688 254.132812 343.960938 254.589844 C 326.871094 255.042969 323.257812 255.101562 317.558594 255.363281 C 311.855469 255.625 304.214844 256.078125 294.597656 256.84375 C 284.980469 257.609375 273.382812 258.6875 259.800781 260.058594 C 246.21875 261.433594 244.433594 261.621094 242.589844 261.867188 C 240.742188 262.113281 238.953125 262.410156 237.214844 262.738281 C 235.472656 263.070312 233.789062 263.46875 232.144531 263.929688 C 230.496094 264.386719 228.085938 265.15625 225.515625 266.636719 C 222.945312 268.117188 220.6875 270.058594 218.679688 272.34375 C 216.671875 274.632812 214.898438 277.273438 213.253906 280.367188 C 211.613281 283.460938 203.730469 302.675781 197.324219 318.488281 C 190.921875 334.304688 185.902344 346.757812 182.296875 355.871094 C 178.695312 364.984375 176.429688 370.730469 175.789062 372.484375 C 174.558594 374.707031 175.558594 374.765625 174.972656 375.226562 Z M 174.972656 375.226562 " fill-opacity="1" fill-rule="nonzero"/></g><g clip-path="url(#0785de79f0)"><path fill="#fdc221" d="M 86.417969 437.449219 C 90.203125 436.09375 97.824219 432.226562 106.707031 428.117188 C 115.59375 424.007812 125.84375 419.730469 137.503906 415.300781 C 149.160156 410.871094 162.238281 406.289062 172.613281 402.824219 C 182.992188 399.355469 189.90625 397.328125 197.425781 395.515625 C 204.945312 393.703125 213.082031 392.144531 221.824219 390.792969 C 230.570312 389.441406 239.929688 388.335938 258.671875 386.386719 C 277.414062 384.4375 303.832031 381.726562 328.429688 379.5625 C 353.03125 377.398438 375.808594 375.777344 396.761719 374.703125 C 417.714844 373.628906 436.832031 372.996094 448.070312 372.691406 C 459.308594 372.382812 463.933594 372.386719 468.597656 372.425781 C 473.261719 372.464844 477.964844 372.550781 482.707031 372.722656 C 487.449219 372.898438 492.226562 373.148438 497.046875 373.4375 C 501.867188 373.726562 508.179688 374.191406 516.683594 374.847656 C 525.1875 375.5 535.875 376.34375 548.746094 377.277344 C 561.617188 378.210938 576.675781 379.203125 586.195312 379.628906 C 595.710938 380.058594 598.285156 380.074219 601.042969 380.042969 C 603.800781 380.015625 606.746094 379.882812 609.875 379.683594 C 613.003906 379.480469 616.316406 379.175781 618.875 379.253906 C 621.429688 379.332031 621.429688 379.332031 619.730469 379.214844 C 619.730469 379.214844 616.34375 378.789062 613.171875 378.046875 C 610.003906 377.304688 607.015625 376.640625 604.214844 376.046875 C 601.417969 375.449219 598.800781 374.929688 596.390625 374.425781 C 593.976562 373.921875 577.730469 370.675781 563.574219 368.15625 C 549.421875 365.636719 537.386719 363.65625 527.484375 362.097656 C 517.582031 360.542969 509.808594 359.40625 504.148438 358.632812 C 498.488281 357.859375 493.550781 357.261719 488.648438 356.769531 C 483.742188 356.273438 478.863281 355.871094 474.015625 355.523438 C 469.167969 355.179688 464.347656 354.921875 459.515625 354.761719 C 454.683594 354.597656 436.480469 354.402344 416.445312 355.074219 C 396.40625 355.75 374.59375 357.019531 350.992188 358.839844 C 327.390625 360.65625 302 363.019531 274.835938 366.003906 C 247.671875 368.988281 237.609375 370.363281 228.09375 372.019531 C 218.578125 373.679688 209.664062 375.617188 201.347656 377.84375 C 193.035156 380.066406 185.316406 382.542969 178.28125 385.300781 C 171.25 388.058594 157.421875 393.824219 145.027344 399.585938 C 132.628906 405.34375 121.714844 411.011719 112.328125 416.652344 C 102.941406 422.292969 95.121094 427.917969 92.117188 431.246094 C 86.015625 436.921875 89.511719 435.101562 86.417969 437.449219 Z M 86.417969 437.449219 " fill-opacity="1" fill-rule="nonzero"/></g><g clip-path="url(#019191d72e)"><path fill="#fdc221" d="M 83.757812 447.207031 C 82.933594 450.054688 82.546875 458.316406 82.890625 470.429688 C 83.230469 482.546875 84.390625 498.488281 86.292969 518.261719 C 88.199219 538.03125 90.835938 561.628906 93.179688 577.480469 C 95.523438 593.332031 97.519531 598.082031 100.539062 602.210938 C 103.554688 606.335938 107.476562 609.6875 112.125 612.15625 C 116.769531 614.625 122.007812 616.242188 126.839844 617.214844 C 131.671875 618.183594 136.960938 618.972656 143.164062 619.546875 C 149.367188 620.117188 156.519531 620.539062 164.636719 620.816406 C 172.753906 621.09375 181.851562 621.230469 212.492188 620.21875 C 243.132812 619.203125 293.246094 617.492188 341.855469 616.308594 C 390.460938 615.125 437.554688 614.472656 483.144531 614.34375 C 528.734375 614.214844 572.8125 614.613281 610.207031 615.203125 C 647.597656 615.789062 680.179688 616.511719 714.253906 617.683594 C 748.324219 618.855469 783.917969 619.71875 821.042969 620.550781 C 858.171875 621.386719 896.859375 621.847656 926.679688 621.921875 C 956.5 622 956.5 622 936.714844 620.585938 C 936.714844 620.585938 897.417969 613.679688 859.398438 609.558594 C 821.378906 605.441406 784.765625 602.464844 749.585938 600.609375 C 714.402344 598.75 680.675781 597.722656 648.457031 597.148438 C 616.238281 596.574219 573.0625 595.820312 528.328125 595.597656 C 483.59375 595.371094 437.363281 595.675781 389.632812 596.511719 C 341.898438 597.34375 292.667969 598.707031 241.980469 600.59375 C 191.296875 602.484375 182.03125 602.4375 173.492188 602.257812 C 164.953125 602.082031 157.457031 601.765625 151.015625 601.324219 C 144.578125 600.878906 139.222656 600.3125 134.878906 599.683594 C 130.539062 599.054688 126.246094 598.355469 123.171875 597.355469 C 120.09375 596.359375 117.769531 595.046875 115.996094 593.457031 C 114.222656 591.863281 112.839844 589.878906 111.839844 587.464844 C 110.839844 585.050781 106.199219 559.320312 102.128906 537.304688 C 98.054688 515.292969 94.625 497.117188 91.878906 482.769531 C 89.132812 468.425781 87.023438 457.90625 85.757812 453.941406 C 84.421875 447.191406 83.832031 449.996094 83.757812 447.207031 Z M 83.757812 447.207031 " fill-opacity="1" fill-rule="nonzero"/></g><path fill="#fdc221" d="M 208.21875 391.132812 C 208.855469 395.113281 211.394531 402.460938 213.972656 409.78125 C 216.546875 417.101562 219.0625 424.449219 221.476562 431.851562 C 223.890625 439.253906 226.183594 446.714844 227.929688 452.542969 C 229.675781 458.371094 230.664062 461.863281 231.242188 464.539062 C 231.820312 467.21875 232.035156 468.960938 232.046875 469.34375 C 232.054688 469.726562 233.003906 468.1875 228.269531 468.128906 C 223.535156 468.070312 211.835938 469.023438 200.574219 469.703125 C 189.3125 470.378906 178.480469 470.828125 168.066406 470.886719 C 157.648438 470.949219 147.648438 470.683594 142.023438 470.457031 C 136.398438 470.230469 135.425781 469.871094 134.050781 468.652344 C 132.671875 467.433594 131.011719 465.011719 129.316406 461.308594 C 127.625 457.609375 126 452.683594 125.199219 450.925781 C 124.398438 449.167969 123.898438 450.320312 123.535156 450.722656 C 123.175781 451.125 123.167969 451.109375 123.480469 450.929688 C 123.792969 450.746094 124.375 450.476562 125.816406 449.890625 C 127.257812 449.304688 129.421875 448.449219 131.851562 447.515625 C 134.285156 446.582031 136.984375 445.578125 139.953125 444.519531 C 142.921875 443.457031 146.148438 442.300781 151.71875 440.34375 C 157.289062 438.386719 164.460938 435.867188 170.835938 433.652344 C 177.210938 431.441406 182.796875 429.527344 187.589844 427.863281 C 192.382812 426.199219 196.410156 424.792969 199.105469 424.210938 C 201.804688 423.632812 201.804688 423.632812 199.988281 423.90625 C 199.988281 423.90625 196.292969 424.113281 191.722656 424.390625 C 187.148438 424.671875 181.78125 425.394531 175.628906 426.527344 C 169.472656 427.660156 162.535156 429.175781 154.824219 431.0625 C 147.113281 432.949219 143.59375 433.839844 140.316406 434.703125 C 137.042969 435.566406 134.027344 436.394531 131.269531 437.179688 C 128.511719 437.96875 126.015625 438.738281 123.792969 439.464844 C 121.570312 440.191406 120.558594 440.523438 119.53125 440.945312 C 118.5 441.367188 117.53125 441.882812 116.554688 442.628906 C 115.578125 443.375 114.601562 444.613281 114.167969 446.945312 C 113.734375 449.277344 115.015625 455.585938 116.679688 460.992188 C 118.34375 466.394531 120.398438 470.902344 123.046875 474.535156 C 125.691406 478.171875 129.140625 480.820312 133.058594 481.960938 C 136.972656 483.101562 147.042969 483.90625 157.523438 484.136719 C 168.003906 484.367188 178.878906 484.171875 190.140625 483.53125 C 201.402344 482.886719 213.039062 481.679688 225.078125 479.988281 C 237.117188 478.296875 241.046875 476.316406 242.199219 473.34375 C 243.351562 470.367188 243.195312 467.804688 242.578125 464.964844 C 241.957031 462.128906 240.917969 458.792969 239.472656 454.898438 C 238.03125 451.003906 235.226562 443.589844 232.199219 436.253906 C 229.167969 428.921875 225.949219 421.710938 222.503906 414.640625 C 219.058594 407.574219 215.339844 400.675781 212.832031 397.546875 C 208.644531 390.925781 209.898438 394.625 208.21875 391.132812 Z M 208.21875 391.132812 " fill-opacity="1" fill-rule="nonzero"/><g clip-path="url(#7bf0346995)"><path fill="#fdc221" d="M 519.539062 491.117188 C 517.628906 490.445312 513.816406 489.847656 510.03125 489.410156 C 506.246094 488.976562 502.496094 488.621094 498.78125 488.347656 C 495.066406 488.070312 491.390625 487.859375 477.617188 487.488281 C 463.84375 487.121094 442.132812 486.839844 423.609375 486.71875 C 405.085938 486.601562 389.75 486.578125 377.609375 486.691406 C 365.464844 486.808594 356.523438 486.8125 351.328125 486.777344 C 346.132812 486.738281 340.828125 486.640625 332.679688 486.375 C 324.53125 486.113281 313.574219 485.683594 299.820312 485.09375 C 286.066406 484.503906 269.519531 483.753906 256.921875 485.03125 C 244.324219 486.308594 242.1875 488.058594 240 489.75 C 237.808594 491.445312 235.5625 493.082031 233.261719 494.667969 C 230.957031 496.25 228.597656 497.777344 226.476562 503.996094 C 224.355469 510.214844 225.238281 513.894531 225.988281 518.703125 C 226.738281 523.507812 227.320312 529.386719 227.722656 536.308594 C 228.125 543.230469 228.34375 551.175781 230.277344 558.578125 C 232.210938 565.976562 234.621094 566.890625 236.902344 567.289062 C 239.183594 567.6875 242.148438 568.015625 245.972656 568.324219 C 249.800781 568.628906 254.527344 568.925781 276.261719 569.375 C 297.996094 569.820312 335.78125 570.566406 373.40625 571.523438 C 411.03125 572.480469 448.5 573.652344 485.835938 574.257812 C 523.175781 574.867188 560.402344 574.804688 588.28125 574.382812 C 616.160156 573.957031 616.160156 573.957031 597.625 573.085938 C 597.625 573.085938 560.714844 567.890625 523.523438 564.988281 C 486.335938 562.082031 448.941406 560.304688 411.371094 559.207031 C 373.800781 558.105469 336.070312 557.214844 298.203125 556.542969 C 260.335938 555.871094 255.296875 555.59375 251.019531 555.308594 C 246.746094 555.019531 243.453125 554.726562 241.210938 554.449219 C 238.972656 554.171875 238.003906 553.976562 239.890625 556.738281 C 241.78125 559.5 241.691406 550.929688 241.402344 543.058594 C 241.113281 535.1875 240.625 528.269531 239.929688 522.273438 C 239.230469 516.277344 238.3125 511.175781 237.207031 508.964844 C 236.105469 506.75 235.75 509.050781 238.296875 507.371094 C 240.84375 505.6875 243.332031 503.945312 245.757812 502.136719 C 248.1875 500.328125 250.558594 498.460938 250.839844 497.34375 C 251.125 496.226562 268.90625 497.089844 284.542969 497.789062 C 300.179688 498.488281 313.035156 499.027344 323.109375 499.402344 C 333.1875 499.777344 340.496094 499.988281 345.027344 500.035156 C 349.558594 500.085938 356.460938 500.164062 366.574219 500.117188 C 376.6875 500.074219 389.949219 499.871094 406.371094 499.226562 C 422.792969 498.582031 442.375 497.566406 465.113281 496.046875 C 487.847656 494.527344 491.425781 494.285156 495.089844 494.039062 C 498.753906 493.789062 502.460938 493.535156 506.214844 493.242188 C 509.964844 492.949219 513.761719 492.605469 515.683594 492.074219 C 519.527344 491.589844 517.617188 491.070312 519.539062 491.117188 Z M 519.539062 491.117188 " fill-opacity="1" fill-rule="nonzero"/></g><path fill="#fdc221" d="M 83.101562 488.90625 C 82.929688 490.273438 82.527344 495.65625 81.757812 505.125 C 80.988281 514.597656 79.960938 528.167969 78.632812 545.84375 C 77.304688 563.519531 75.765625 585.304688 74.933594 598.839844 C 74.105469 612.375 74.238281 614.578125 74.609375 616.671875 C 74.984375 618.765625 75.558594 620.753906 76.355469 622.621094 C 77.152344 624.488281 78.195312 626.210938 81.78125 629.386719 C 85.371094 632.5625 91.476562 635.984375 98.734375 638.601562 C 105.992188 641.222656 114.410156 643.082031 124.007812 644.242188 C 133.605469 645.402344 144.398438 645.855469 152.734375 645.65625 C 161.070312 645.460938 165.535156 645.042969 169.316406 644.546875 C 173.097656 644.054688 176.203125 643.472656 178.65625 642.828125 C 181.105469 642.1875 182.9375 641.421875 184.171875 640.625 C 185.410156 639.832031 186.457031 638.660156 187.125 637.148438 C 187.789062 635.640625 188.125 633.816406 188.195312 631.667969 C 188.261719 629.523438 188.050781 627.035156 188.011719 624.996094 C 187.976562 622.960938 187.976562 622.960938 187.9375 624.316406 C 187.9375 624.316406 187.679688 627.015625 187.085938 629.246094 C 186.496094 631.476562 185.855469 633.230469 185.175781 634.484375 C 184.492188 635.738281 183.832031 636.492188 183.152344 636.855469 C 182.472656 637.21875 181.433594 637.59375 179.714844 637.871094 C 177.992188 638.144531 175.519531 638.332031 172.324219 638.40625 C 169.132812 638.484375 165.234375 638.457031 160.710938 638.328125 C 156.183594 638.199219 144.9375 637.175781 135.070312 635.730469 C 125.199219 634.289062 116.730469 632.417969 109.679688 630.117188 C 102.632812 627.816406 97.023438 625.128906 92.785156 622.097656 C 88.542969 619.066406 88.921875 619.285156 88.574219 618.53125 C 88.226562 617.773438 87.917969 616.847656 87.683594 615.71875 C 87.445312 614.589844 87.300781 613.25 87.195312 611.824219 C 87.09375 610.398438 87.632812 585.816406 87.734375 565.296875 C 87.835938 544.773438 87.5625 528.359375 86.949219 516.050781 C 86.335938 503.746094 85.394531 495.554688 84.617188 492.851562 C 83.5625 488.8125 83.378906 490.242188 83.101562 488.90625 Z M 83.101562 488.90625 " fill-opacity="1" fill-rule="nonzero"/><g clip-path="url(#11b1426b5d)"><path fill="#fdc221" d="M 165.738281 397.195312 C 165.34375 396.390625 164.402344 394.945312 163.5 393.464844 C 162.601562 391.988281 161.742188 390.46875 160.929688 388.898438 C 160.121094 387.328125 159.34375 385.707031 158.777344 384.46875 C 158.207031 383.226562 157.84375 382.320312 157.386719 380.96875 C 156.933594 379.613281 156.382812 377.84375 155.769531 375.664062 C 155.160156 373.480469 154.457031 370.902344 153.945312 369.097656 C 153.429688 367.289062 153.25 366.828125 153.0625 366.386719 C 152.875 365.945312 152.675781 365.523438 152.460938 365.121094 C 152.25 364.71875 152.027344 364.335938 151.574219 363.664062 C 151.121094 362.992188 150.222656 361.992188 149.152344 361.179688 C 148.078125 360.363281 146.871094 359.738281 145.558594 359.285156 C 144.246094 358.835938 142.839844 358.539062 141.714844 358.398438 C 140.589844 358.257812 139.792969 358.191406 138.988281 358.144531 C 138.179688 358.09375 137.363281 358.066406 136.539062 358.058594 C 135.714844 358.050781 134.878906 358.0625 133.386719 358.238281 C 131.894531 358.414062 129.058594 358.679688 124.386719 358.984375 C 119.710938 359.292969 113.257812 359.632812 105.046875 360.042969 C 96.832031 360.449219 86.882812 361.175781 81.050781 361.785156 C 75.21875 362.394531 74.328125 362.535156 73.425781 362.824219 C 72.523438 363.109375 71.648438 363.5625 70.855469 364.167969 C 70.058594 364.777344 69.394531 365.511719 68.539062 369.660156 C 67.683594 373.808594 67.457031 378.449219 67.355469 382.285156 C 67.253906 386.121094 67.285156 389.171875 67.457031 391.523438 C 67.625 393.875 68.035156 395.796875 70.542969 397.769531 C 73.050781 399.742188 74.601562 399.945312 76.195312 400.070312 C 77.789062 400.199219 79.425781 400.257812 81.101562 400.238281 C 82.777344 400.21875 84.496094 400.144531 85.800781 400.0625 C 87.109375 399.980469 88.984375 399.839844 92.046875 399.53125 C 95.105469 399.222656 99.390625 398.734375 104.898438 397.964844 C 110.40625 397.195312 117.132812 396.007812 122.804688 395.210938 C 128.480469 394.417969 128.480469 394.417969 124.679688 394.632812 C 124.679688 394.632812 117.027344 394.113281 110.636719 393.769531 C 104.246094 393.421875 99.121094 393.285156 95.25 393.207031 C 91.382812 393.128906 88.785156 393.070312 87.4375 393 C 86.089844 392.929688 84.414062 392.878906 82.902344 392.777344 C 81.390625 392.671875 79.945312 392.515625 78.566406 392.308594 C 77.191406 392.101562 75.878906 391.84375 75.230469 391.78125 C 74.578125 391.71875 76.230469 393.519531 76.210938 392.488281 C 76.1875 391.457031 76.277344 389.300781 76.546875 386.238281 C 76.8125 383.171875 77.265625 379.242188 77.875 374.546875 C 78.480469 369.851562 77.558594 372.210938 77.363281 372.414062 C 77.167969 372.617188 76.933594 372.785156 76.71875 372.890625 C 76.507812 372.996094 76.363281 373.046875 76.46875 373.058594 C 76.574219 373.074219 87.738281 372.601562 97.128906 371.710938 C 106.515625 370.824219 114.15625 369.929688 120.0625 369.15625 C 125.972656 368.382812 130.171875 367.726562 132.625 367.242188 C 135.078125 366.761719 135.460938 366.707031 136.152344 366.636719 C 136.847656 366.5625 137.527344 366.503906 138.203125 366.464844 C 138.875 366.429688 139.542969 366.40625 140.164062 366.398438 C 140.785156 366.394531 141.800781 366.429688 142.578125 366.535156 C 143.355469 366.640625 143.96875 366.804688 144.433594 367.003906 C 144.898438 367.199219 145.25 367.425781 145.589844 367.78125 C 145.929688 368.132812 146.035156 368.265625 146.179688 368.464844 C 146.324219 368.667969 146.476562 368.902344 146.640625 369.175781 C 146.808594 369.445312 146.980469 369.75 147.121094 369.96875 C 147.257812 370.191406 148.332031 372.933594 149.339844 375.339844 C 150.34375 377.75 151.238281 379.78125 152.039062 381.4375 C 152.84375 383.09375 153.558594 384.390625 154.152344 385.285156 C 154.746094 386.183594 155.8125 387.734375 156.957031 389.257812 C 158.101562 390.78125 159.308594 392.199219 160.585938 393.503906 C 161.863281 394.8125 163.203125 396.003906 164.003906 396.457031 C 165.402344 397.523438 165.136719 396.582031 165.738281 397.195312 Z M 165.738281 397.195312 " fill-opacity="1" fill-rule="nonzero"/></g><g clip-path="url(#fb0b09ef87)"><path fill="#fdc221" d="M 724.996094 375.226562 C 724.164062 374.867188 721.496094 371.949219 717.234375 365.769531 C 712.972656 359.585938 707.253906 350.0625 700.195312 337.152344 C 693.136719 324.242188 684.683594 307.972656 679.40625 297.6875 C 674.128906 287.402344 672.757812 285.417969 671.492188 283.894531 C 670.230469 282.371094 669.089844 281.308594 668.101562 280.695312 C 667.117188 280.078125 666.339844 279.78125 665.183594 279.507812 C 664.023438 279.238281 662.757812 278.992188 661.421875 278.769531 C 660.085938 278.550781 658.679688 278.371094 657.203125 278.242188 C 655.722656 278.113281 654.175781 278.027344 646.179688 277.621094 C 638.183594 277.210938 625.257812 276.527344 614.351562 275.945312 C 603.449219 275.363281 594.574219 274.839844 587.742188 274.457031 C 580.910156 274.074219 576.160156 273.890625 565.875 273.632812 C 555.585938 273.378906 538.703125 272.929688 475.703125 270.8125 C 412.699219 268.695312 402.066406 267.800781 392.375 266.9375 C 382.683594 266.074219 373.765625 265.21875 365.617188 264.328125 C 357.46875 263.433594 350.089844 262.460938 344.933594 261.5625 C 339.777344 260.664062 339.777344 260.664062 343.222656 260.707031 C 343.222656 260.707031 350.136719 259.105469 357.828125 258.453125 C 365.519531 257.800781 373.984375 257.382812 383.226562 257.105469 C 392.46875 256.824219 402.484375 256.6875 439.164062 255.753906 C 475.847656 254.820312 538.914062 254.132812 556.007812 254.589844 C 573.097656 255.042969 576.710938 255.101562 582.410156 255.363281 C 588.109375 255.625 595.753906 256.078125 605.371094 256.84375 C 614.988281 257.609375 626.585938 258.6875 640.167969 260.058594 C 653.75 261.433594 655.535156 261.621094 657.378906 261.867188 C 659.222656 262.113281 661.015625 262.410156 662.753906 262.738281 C 664.496094 263.070312 666.179688 263.46875 667.824219 263.929688 C 669.472656 264.386719 671.882812 265.15625 674.453125 266.636719 C 677.023438 268.117188 679.28125 270.058594 681.289062 272.34375 C 683.296875 274.632812 685.070312 277.273438 686.710938 280.367188 C 688.355469 283.460938 696.238281 302.675781 702.640625 318.488281 C 709.046875 334.304688 714.066406 346.757812 717.671875 355.871094 C 721.273438 364.984375 723.539062 370.730469 724.179688 372.484375 C 725.40625 374.707031 724.410156 374.765625 724.996094 375.226562 Z M 724.996094 375.226562 " fill-opacity="1" fill-rule="nonzero"/></g><g clip-path="url(#d38a6f8da2)"><path fill="#fdc221" d="M 813.550781 437.449219 C 809.765625 436.09375 802.144531 432.226562 793.257812 428.117188 C 784.375 424.007812 774.121094 419.730469 762.464844 415.300781 C 750.808594 410.871094 737.730469 406.289062 727.355469 402.824219 C 716.976562 399.355469 710.0625 397.328125 702.542969 395.515625 C 695.023438 393.703125 686.886719 392.144531 678.140625 390.792969 C 669.398438 389.441406 660.039062 388.335938 641.296875 386.386719 C 622.554688 384.4375 596.136719 381.726562 571.539062 379.5625 C 546.9375 377.398438 524.160156 375.777344 503.207031 374.703125 C 482.253906 373.628906 463.136719 372.996094 451.898438 372.691406 C 440.660156 372.382812 436.035156 372.386719 431.371094 372.425781 C 426.707031 372.464844 422.003906 372.550781 417.261719 372.722656 C 412.519531 372.898438 407.742188 373.148438 402.921875 373.4375 C 398.101562 373.726562 391.789062 374.191406 383.285156 374.847656 C 374.78125 375.5 364.09375 376.34375 351.222656 377.277344 C 338.351562 378.210938 323.289062 379.203125 313.773438 379.628906 C 304.257812 380.058594 301.683594 380.074219 298.925781 380.042969 C 296.167969 380.015625 293.222656 379.882812 290.09375 379.683594 C 286.964844 379.480469 283.648438 379.175781 281.09375 379.253906 C 278.539062 379.332031 278.539062 379.332031 280.238281 379.214844 C 280.238281 379.214844 283.621094 378.789062 286.792969 378.046875 C 289.964844 377.304688 292.953125 376.640625 295.75 376.046875 C 298.550781 375.449219 301.167969 374.929688 303.578125 374.425781 C 305.992188 373.921875 322.238281 370.675781 336.390625 368.15625 C 350.546875 365.636719 362.582031 363.65625 372.484375 362.097656 C 382.386719 360.539062 390.160156 359.40625 395.820312 358.632812 C 401.480469 357.859375 406.417969 357.261719 411.320312 356.769531 C 416.226562 356.273438 421.101562 355.871094 425.953125 355.523438 C 430.800781 355.179688 435.621094 354.921875 440.453125 354.761719 C 445.285156 354.597656 463.488281 354.402344 483.523438 355.074219 C 503.5625 355.75 525.375 357.019531 548.976562 358.839844 C 572.578125 360.65625 597.96875 363.019531 625.132812 366.003906 C 652.296875 368.988281 662.359375 370.363281 671.875 372.019531 C 681.390625 373.679688 690.304688 375.617188 698.621094 377.84375 C 706.933594 380.066406 714.652344 382.542969 721.6875 385.300781 C 728.71875 388.058594 742.546875 393.824219 754.941406 399.585938 C 767.335938 405.34375 778.253906 411.011719 787.640625 416.652344 C 797.027344 422.292969 804.847656 427.917969 807.851562 431.246094 C 813.953125 436.921875 810.457031 435.101562 813.550781 437.449219 Z M 813.550781 437.449219 " fill-opacity="1" fill-rule="nonzero"/></g><g clip-path="url(#5b9b1a0674)"><path fill="#fdc221" d="M 816.210938 447.207031 C 817.035156 450.054688 817.421875 458.3125 817.078125 470.429688 C 816.738281 482.546875 815.578125 498.488281 813.675781 518.261719 C 811.769531 538.03125 809.132812 561.628906 806.789062 577.480469 C 804.445312 593.332031 802.445312 598.082031 799.429688 602.210938 C 796.414062 606.335938 792.488281 609.6875 787.84375 612.15625 C 783.199219 614.625 777.960938 616.242188 773.128906 617.214844 C 768.296875 618.183594 763.007812 618.972656 756.804688 619.546875 C 750.601562 620.117188 743.449219 620.539062 735.332031 620.816406 C 727.214844 621.09375 718.113281 621.230469 687.472656 620.21875 C 656.835938 619.203125 606.71875 617.492188 558.113281 616.308594 C 509.507812 615.125 462.410156 614.472656 416.824219 614.34375 C 371.234375 614.214844 327.15625 614.613281 289.761719 615.203125 C 252.371094 615.789062 219.785156 616.511719 185.714844 617.683594 C 151.644531 618.855469 116.050781 619.71875 78.925781 620.550781 C 41.796875 621.386719 3.109375 621.847656 -26.710938 621.921875 C -56.53125 622 -56.53125 622 -36.746094 620.585938 C -36.746094 620.585938 2.550781 613.679688 40.570312 609.558594 C 78.589844 605.441406 115.203125 602.464844 150.382812 600.609375 C 185.566406 598.75 219.292969 597.722656 251.511719 597.148438 C 283.730469 596.574219 326.90625 595.820312 371.640625 595.597656 C 416.375 595.371094 462.605469 595.675781 510.335938 596.511719 C 558.070312 597.34375 607.300781 598.707031 657.988281 600.59375 C 708.671875 602.484375 717.9375 602.4375 726.476562 602.257812 C 735.015625 602.082031 742.511719 601.765625 748.949219 601.324219 C 755.390625 600.878906 760.746094 600.3125 765.085938 599.683594 C 769.429688 599.054688 773.722656 598.355469 776.796875 597.355469 C 779.875 596.359375 782.199219 595.046875 783.972656 593.457031 C 785.746094 591.863281 787.128906 589.878906 788.128906 587.464844 C 789.128906 585.050781 793.769531 559.320312 797.839844 537.304688 C 801.914062 515.292969 805.34375 497.117188 808.089844 482.769531 C 810.835938 468.425781 812.945312 457.90625 814.207031 453.941406 C 815.546875 447.191406 816.136719 449.996094 816.210938 447.207031 Z M 816.210938 447.207031 " fill-opacity="1" fill-rule="nonzero"/></g><path fill="#fdc221" d="M 691.75 391.132812 C 691.113281 395.113281 688.570312 402.460938 685.996094 409.78125 C 683.417969 417.101562 680.90625 424.449219 678.492188 431.851562 C 676.078125 439.253906 673.78125 446.714844 672.039062 452.542969 C 670.292969 458.371094 669.304688 461.863281 668.726562 464.539062 C 668.148438 467.21875 667.933594 468.960938 667.921875 469.34375 C 667.914062 469.726562 666.960938 468.1875 671.699219 468.128906 C 676.433594 468.070312 688.132812 469.023438 699.394531 469.703125 C 710.65625 470.378906 721.488281 470.828125 731.902344 470.886719 C 742.316406 470.949219 752.320312 470.683594 757.945312 470.457031 C 763.570312 470.230469 764.542969 469.871094 765.917969 468.652344 C 767.296875 467.433594 768.957031 465.011719 770.652344 461.308594 C 772.34375 457.609375 773.96875 452.683594 774.769531 450.925781 C 775.570312 449.167969 776.070312 450.320312 776.433594 450.722656 C 776.792969 451.125 776.800781 451.109375 776.488281 450.929688 C 776.175781 450.746094 775.59375 450.476562 774.152344 449.890625 C 772.710938 449.304688 770.546875 448.449219 768.117188 447.515625 C 765.683594 446.582031 762.984375 445.578125 760.015625 444.519531 C 757.046875 443.457031 753.820312 442.300781 748.25 440.34375 C 742.679688 438.386719 735.507812 435.867188 729.132812 433.652344 C 722.757812 431.441406 717.171875 429.527344 712.378906 427.863281 C 707.585938 426.199219 703.558594 424.792969 700.863281 424.210938 C 698.164062 423.632812 698.164062 423.632812 699.980469 423.90625 C 699.980469 423.90625 703.675781 424.113281 708.246094 424.390625 C 712.820312 424.671875 718.1875 425.394531 724.339844 426.527344 C 730.496094 427.660156 737.433594 429.175781 745.144531 431.0625 C 752.855469 432.949219 756.375 433.839844 759.652344 434.703125 C 762.925781 435.566406 765.941406 436.394531 768.699219 437.179688 C 771.457031 437.96875 773.953125 438.738281 776.175781 439.464844 C 778.398438 440.191406 779.410156 440.523438 780.4375 440.945312 C 781.46875 441.367188 782.4375 441.882812 783.414062 442.628906 C 784.390625 443.375 785.367188 444.613281 785.800781 446.945312 C 786.234375 449.277344 784.953125 455.585938 783.289062 460.992188 C 781.625 466.394531 779.570312 470.902344 776.921875 474.535156 C 774.273438 478.171875 770.828125 480.820312 766.910156 481.960938 C 762.992188 483.101562 752.925781 483.90625 742.445312 484.136719 C 731.964844 484.367188 721.089844 484.171875 709.828125 483.53125 C 698.5625 482.886719 686.925781 481.679688 674.886719 479.988281 C 662.847656 478.296875 658.921875 476.316406 657.769531 473.34375 C 656.617188 470.367188 656.773438 467.804688 657.390625 464.964844 C 658.011719 462.128906 659.050781 458.792969 660.496094 454.898438 C 661.9375 451.003906 664.742188 443.589844 667.769531 436.253906 C 670.796875 428.921875 674.019531 421.710938 677.464844 414.640625 C 680.910156 407.574219 684.628906 400.675781 687.136719 397.546875 C 691.324219 390.925781 690.070312 394.625 691.75 391.132812 Z M 691.75 391.132812 " fill-opacity="1" fill-rule="nonzero"/><g clip-path="url(#e7b03d51ba)"><path fill="#fdc221" d="M 380.425781 491.117188 C 382.339844 490.445312 386.152344 489.847656 389.9375 489.410156 C 393.722656 488.976562 397.472656 488.621094 401.1875 488.347656 C 404.902344 488.070312 408.578125 487.859375 422.351562 487.488281 C 436.125 487.121094 457.835938 486.839844 476.359375 486.71875 C 494.882812 486.601562 510.21875 486.578125 522.359375 486.691406 C 534.503906 486.808594 543.445312 486.8125 548.640625 486.777344 C 553.835938 486.738281 559.140625 486.640625 567.289062 486.375 C 575.4375 486.113281 586.394531 485.683594 600.148438 485.09375 C 613.902344 484.503906 630.449219 483.753906 643.046875 485.03125 C 655.644531 486.308594 657.78125 488.058594 659.96875 489.75 C 662.160156 491.445312 664.40625 493.082031 666.707031 494.667969 C 669.011719 496.25 671.371094 497.777344 673.492188 503.996094 C 675.613281 510.210938 674.726562 513.894531 673.980469 518.703125 C 673.230469 523.507812 672.648438 529.386719 672.246094 536.308594 C 671.84375 543.230469 671.625 551.175781 669.691406 558.578125 C 667.757812 565.976562 665.347656 566.890625 663.066406 567.289062 C 660.785156 567.6875 657.820312 568.015625 653.996094 568.324219 C 650.167969 568.628906 645.441406 568.925781 623.707031 569.375 C 601.972656 569.820312 564.1875 570.566406 526.5625 571.523438 C 488.9375 572.480469 451.46875 573.652344 414.132812 574.257812 C 376.792969 574.867188 339.566406 574.804688 311.6875 574.382812 C 283.808594 573.957031 283.808594 573.957031 302.34375 573.085938 C 302.34375 573.085938 339.253906 567.890625 376.441406 564.988281 C 413.632812 562.082031 451.027344 560.304688 488.597656 559.207031 C 526.167969 558.105469 563.898438 557.214844 601.765625 556.542969 C 639.632812 555.871094 644.671875 555.59375 648.945312 555.308594 C 653.222656 555.019531 656.515625 554.726562 658.757812 554.449219 C 660.996094 554.171875 661.964844 553.976562 660.078125 556.738281 C 658.1875 559.5 658.277344 550.929688 658.566406 543.058594 C 658.855469 535.1875 659.34375 528.269531 660.039062 522.273438 C 660.734375 516.277344 661.65625 511.175781 662.757812 508.964844 C 663.863281 506.75 664.21875 509.050781 661.671875 507.371094 C 659.125 505.6875 656.636719 503.945312 654.210938 502.136719 C 651.78125 500.328125 649.410156 498.460938 649.128906 497.34375 C 648.84375 496.226562 631.0625 497.089844 615.425781 497.789062 C 599.789062 498.488281 586.933594 499.027344 576.859375 499.402344 C 566.78125 499.777344 559.472656 499.988281 554.941406 500.035156 C 550.410156 500.085938 543.507812 500.164062 533.394531 500.117188 C 523.28125 500.074219 510.015625 499.871094 493.597656 499.226562 C 477.175781 498.582031 457.59375 497.566406 434.855469 496.046875 C 412.121094 494.527344 408.542969 494.285156 404.878906 494.039062 C 401.214844 493.789062 397.507812 493.535156 393.753906 493.242188 C 390.003906 492.949219 386.207031 492.605469 384.285156 492.074219 C 380.4375 491.589844 382.351562 491.070312 380.425781 491.117188 Z M 380.425781 491.117188 " fill-opacity="1" fill-rule="nonzero"/></g><path fill="#fdc221" d="M 816.867188 488.90625 C 817.039062 490.273438 817.441406 495.65625 818.210938 505.125 C 818.980469 514.597656 820.003906 528.167969 821.335938 545.84375 C 822.664062 563.519531 824.203125 585.304688 825.03125 598.839844 C 825.863281 612.375 825.730469 614.578125 825.359375 616.671875 C 824.984375 618.765625 824.410156 620.753906 823.613281 622.621094 C 822.816406 624.488281 821.773438 626.210938 818.183594 629.386719 C 814.597656 632.5625 808.492188 635.984375 801.234375 638.601562 C 793.976562 641.222656 785.558594 643.082031 775.960938 644.242188 C 766.363281 645.398438 755.570312 645.855469 747.234375 645.65625 C 738.898438 645.460938 734.433594 645.042969 730.652344 644.546875 C 726.867188 644.054688 723.765625 643.472656 721.3125 642.828125 C 718.859375 642.1875 717.03125 641.421875 715.792969 640.625 C 714.558594 639.832031 713.511719 638.660156 712.84375 637.148438 C 712.179688 635.640625 711.84375 633.816406 711.773438 631.667969 C 711.707031 629.523438 711.917969 627.035156 711.957031 624.996094 C 711.992188 622.960938 711.992188 622.960938 712.03125 624.316406 C 712.03125 624.316406 712.289062 627.015625 712.878906 629.246094 C 713.472656 631.476562 714.113281 633.230469 714.792969 634.484375 C 715.476562 635.738281 716.136719 636.492188 716.816406 636.855469 C 717.496094 637.21875 718.535156 637.59375 720.253906 637.871094 C 721.976562 638.144531 724.449219 638.332031 727.644531 638.40625 C 730.835938 638.484375 734.734375 638.457031 739.257812 638.328125 C 743.78125 638.199219 755.03125 637.175781 764.898438 635.730469 C 774.769531 634.289062 783.238281 632.417969 790.289062 630.117188 C 797.335938 627.816406 802.945312 625.128906 807.183594 622.097656 C 811.425781 619.066406 811.046875 619.285156 811.394531 618.53125 C 811.742188 617.773438 812.050781 616.847656 812.285156 615.71875 C 812.523438 614.589844 812.667969 613.25 812.773438 611.824219 C 812.875 610.398438 812.335938 585.816406 812.234375 565.296875 C 812.132812 544.773438 812.40625 528.359375 813.019531 516.050781 C 813.632812 503.746094 814.574219 495.554688 815.351562 492.851562 C 816.40625 488.8125 816.589844 490.242188 816.867188 488.90625 Z M 816.867188 488.90625 " fill-opacity="1" fill-rule="nonzero"/><g clip-path="url(#ee6311d2a0)"><path fill="#fdc221" d="M 734.230469 397.195312 C 734.625 396.390625 735.566406 394.945312 736.46875 393.464844 C 737.367188 391.988281 738.226562 390.46875 739.035156 388.898438 C 739.847656 387.328125 740.625 385.707031 741.191406 384.46875 C 741.761719 383.226562 742.125 382.320312 742.582031 380.96875 C 743.035156 379.613281 743.585938 377.84375 744.199219 375.664062 C 744.808594 373.480469 745.507812 370.902344 746.023438 369.097656 C 746.539062 367.289062 746.71875 366.828125 746.90625 366.386719 C 747.09375 365.945312 747.292969 365.523438 747.503906 365.121094 C 747.71875 364.71875 747.941406 364.335938 748.394531 363.664062 C 748.847656 362.992188 749.742188 361.992188 750.816406 361.179688 C 751.890625 360.363281 753.097656 359.738281 754.410156 359.285156 C 755.722656 358.835938 757.128906 358.539062 758.253906 358.398438 C 759.378906 358.257812 760.175781 358.191406 760.980469 358.144531 C 761.789062 358.09375 762.601562 358.066406 763.429688 358.058594 C 764.253906 358.050781 765.089844 358.0625 766.582031 358.238281 C 768.074219 358.414062 770.910156 358.679688 775.582031 358.984375 C 780.257812 359.292969 786.710938 359.632812 794.921875 360.042969 C 803.136719 360.449219 813.085938 361.175781 818.917969 361.785156 C 824.75 362.394531 825.640625 362.535156 826.542969 362.824219 C 827.441406 363.109375 828.320312 363.5625 829.113281 364.167969 C 829.910156 364.777344 830.574219 365.511719 831.429688 369.660156 C 832.285156 373.808594 832.511719 378.449219 832.613281 382.285156 C 832.714844 386.121094 832.679688 389.171875 832.511719 391.523438 C 832.34375 393.875 831.933594 395.796875 829.425781 397.769531 C 826.917969 399.742188 825.367188 399.945312 823.773438 400.070312 C 822.179688 400.199219 820.542969 400.257812 818.867188 400.238281 C 817.191406 400.21875 815.472656 400.144531 814.167969 400.0625 C 812.859375 399.980469 810.984375 399.839844 807.921875 399.53125 C 804.863281 399.222656 800.578125 398.734375 795.070312 397.964844 C 789.5625 397.195312 782.835938 396.007812 777.160156 395.210938 C 771.488281 394.417969 771.488281 394.417969 775.289062 394.632812 C 775.289062 394.632812 782.941406 394.113281 789.332031 393.769531 C 795.722656 393.421875 800.847656 393.285156 804.714844 393.207031 C 808.582031 393.128906 811.183594 393.070312 812.53125 393 C 813.878906 392.929688 815.554688 392.878906 817.066406 392.777344 C 818.578125 392.671875 820.023438 392.515625 821.402344 392.308594 C 822.777344 392.101562 824.089844 391.84375 824.738281 391.78125 C 825.386719 391.71875 823.738281 393.519531 823.757812 392.488281 C 823.78125 391.457031 823.691406 389.300781 823.421875 386.238281 C 823.15625 383.171875 822.703125 379.242188 822.09375 374.546875 C 821.484375 369.851562 822.410156 372.210938 822.605469 372.414062 C 822.800781 372.617188 823.035156 372.785156 823.246094 372.890625 C 823.460938 372.996094 823.605469 373.046875 823.5 373.058594 C 823.394531 373.074219 812.230469 372.601562 802.839844 371.710938 C 793.453125 370.824219 785.8125 369.929688 779.902344 369.15625 C 773.996094 368.382812 769.792969 367.726562 767.339844 367.242188 C 764.886719 366.761719 764.507812 366.707031 763.816406 366.636719 C 763.121094 366.5625 762.4375 366.503906 761.765625 366.464844 C 761.089844 366.429688 760.425781 366.40625 759.804688 366.398438 C 759.183594 366.390625 758.167969 366.429688 757.390625 366.535156 C 756.613281 366.640625 756 366.804688 755.535156 367.003906 C 755.070312 367.199219 754.71875 367.425781 754.378906 367.78125 C 754.039062 368.132812 753.933594 368.265625 753.789062 368.464844 C 753.644531 368.667969 753.492188 368.902344 753.328125 369.175781 C 753.160156 369.445312 752.984375 369.75 752.847656 369.96875 C 752.710938 370.191406 751.636719 372.933594 750.628906 375.339844 C 749.625 377.75 748.730469 379.78125 747.925781 381.4375 C 747.125 383.09375 746.410156 384.390625 745.816406 385.285156 C 745.222656 386.183594 744.15625 387.734375 743.011719 389.257812 C 741.867188 390.78125 740.660156 392.199219 739.382812 393.503906 C 738.105469 394.8125 736.765625 396.003906 735.964844 396.457031 C 734.566406 397.523438 734.832031 396.582031 734.230469 397.195312 Z M 734.230469 397.195312 " fill-opacity="1" fill-rule="nonzero"/></g><g clip-path="url(#a256e46f5f)"><g clip-path="url(#f89d02923a)"><path fill="#fdc221" d="M 371.40625 554.738281 L 530.214844 554.738281 L 530.214844 613.234375 L 371.40625 613.234375 Z M 371.40625 554.738281 " fill-opacity="1" fill-rule="nonzero"/></g></g><g clip-path="url(#049a53e6ea)"><path fill="#fdc221" d="M 522.25 574.84375 C 521.359375 574.53125 520.167969 574.414062 518.960938 574.308594 C 519.042969 574.246094 519.074219 574.152344 519.0625 574.03125 C 518.386719 574.007812 518.101562 574.242188 517.367188 574.183594 C 517.597656 574.039062 517.414062 573.921875 517.046875 573.976562 C 517.257812 573.796875 517.914062 573.90625 517.898438 574.109375 C 518.03125 574.089844 518.003906 573.972656 517.898438 573.972656 C 519.625 574.0625 521.402344 573.777344 522.882812 574.070312 C 522.015625 573.472656 519.195312 573.484375 517.890625 573.136719 C 517.972656 572.976562 518.546875 573.066406 518.421875 573.273438 C 518.5625 573.203125 518.816406 573.203125 518.84375 573.058594 C 519.996094 573.289062 521.304688 573.375 522.453125 573.3125 C 523.765625 573.8125 525.53125 574.007812 526.28125 574.882812 C 526.328125 575.449219 526.179688 575.75 526.292969 576.203125 C 525.953125 576.792969 525.582031 577.359375 524.925781 577.742188 C 525.386719 578.3125 525.65625 578.742188 525.679688 579.335938 C 525.539062 579.449219 524.898438 579.589844 525.363281 579.683594 C 525.144531 579.773438 524.917969 579.855469 524.730469 579.96875 C 524.785156 580.148438 525.316406 580.195312 525.050781 580.378906 C 524.683594 580.4375 524.640625 580.28125 524.308594 580.316406 C 524.390625 580.722656 525.167969 580.894531 525.375 581.421875 C 525.636719 582.066406 525.152344 582.84375 525.179688 583.644531 C 524.144531 583.652344 524.511719 584.675781 523.066406 584.5625 C 524.15625 585.007812 525.75 585.464844 527.105469 585.507812 C 527.347656 585.789062 527.695312 586.535156 527.113281 586.757812 C 527.238281 586.882812 527.390625 586.988281 527.539062 587.101562 C 527.316406 587.273438 526.457031 587.109375 526.800781 587.453125 C 525.742188 587.625 524.371094 587.378906 523.621094 587.964844 C 523.636719 588.140625 524.019531 588.074219 524.15625 588.167969 C 524.1875 588.34375 523.957031 588.574219 524.054688 588.726562 C 524.648438 588.867188 524.351562 588.988281 524.902344 588.996094 C 524.773438 589.1875 524.570312 589.335938 524.164062 589.347656 C 524.488281 589.527344 525.082031 589.527344 525.226562 589.828125 C 524.019531 590.160156 523.492188 589.933594 522.152344 589.988281 C 524.070312 590.339844 525.785156 590.828125 527.359375 591.410156 C 527.378906 591.714844 527.398438 592.019531 527.152344 591.96875 C 527.351562 592.1875 527.507812 592.023438 527.679688 591.894531 C 527.796875 592.492188 527.855469 592.859375 528.433594 593.210938 C 528.222656 593.703125 527.484375 593.507812 526.847656 593.636719 C 526.941406 593.972656 527.085938 594.269531 527.59375 594.328125 C 527.261719 594.960938 525.457031 594.871094 524.84375 595.109375 C 525.085938 595.527344 525.75 595.183594 526.328125 595.101562 C 526.179688 595.382812 526.558594 595.316406 526.542969 595.515625 C 524.65625 595.585938 524.484375 596.15625 522.515625 595.960938 C 522.460938 597.769531 521.070312 598.71875 520.320312 600.078125 C 519.398438 599.90625 518.992188 600.214844 518.519531 600.507812 C 518.472656 600.699219 519.09375 600.449219 519.050781 600.640625 C 518.222656 600.882812 517.054688 600.847656 515.871094 600.941406 C 514.761719 601.035156 513.828125 601.035156 513.113281 600.757812 C 507.652344 601.445312 503.375 600.902344 497.632812 601.21875 C 497.535156 600.996094 497.980469 601.121094 497.945312 600.9375 C 496.183594 600.929688 493.089844 601.449219 491.371094 601.054688 C 491.03125 601.121094 491.222656 600.828125 491.050781 600.777344 C 489.710938 600.820312 488.503906 601.269531 487.660156 600.804688 C 485.753906 600.699219 483.636719 601.269531 482.25 600.84375 C 476.675781 600.941406 472.1875 601.191406 467.507812 600.675781 C 464.839844 600.546875 462.667969 600.730469 459.976562 600.59375 C 460.351562 600.257812 461.242188 600.253906 461.988281 600.160156 C 461.007812 600.046875 459.410156 600.023438 458.0625 600.121094 C 453.5625 600.445312 448.871094 600.339844 444.277344 600.152344 C 444.066406 599.992188 444.304688 600.074219 444.382812 599.941406 C 443.480469 599.71875 442.53125 600.03125 441.730469 600.101562 C 441.53125 599.972656 441.71875 599.925781 441.730469 599.753906 C 440.824219 599.664062 441.089844 599.964844 440.566406 600.039062 C 440.070312 600.105469 440.710938 599.859375 440.351562 599.832031 C 440.125 599.800781 440.148438 599.933594 440.140625 600.042969 C 438.925781 599.949219 437.953125 599.886719 436.535156 600 C 436.097656 600.035156 436.617188 599.824219 436.320312 599.722656 C 434.539062 599.699219 432.007812 600.105469 430.066406 599.910156 C 429.144531 599.816406 428.558594 599.921875 427.519531 599.929688 C 426.628906 599.9375 425.757812 599.570312 424.757812 599.464844 C 423.9375 599.375 422.714844 599.660156 421.472656 599.488281 C 421.496094 599.386719 421.789062 599.460938 421.789062 599.347656 C 418.179688 599.472656 413.753906 599.488281 410.335938 599.847656 C 406.21875 599.582031 401.449219 600.253906 397.71875 600.21875 C 397.8125 600.113281 397.988281 600.066406 398.25 600.074219 C 394.601562 599.796875 389.003906 599.746094 384.355469 599.898438 C 383.917969 599.941406 383.90625 600.253906 383.296875 600.183594 C 383.015625 600.582031 382.164062 600.613281 381.605469 600.753906 C 381.507812 600.777344 381.191406 600.960938 381.074219 600.964844 C 379.382812 601.039062 379.886719 599.753906 378.941406 599.105469 C 378.441406 599.308594 377.921875 599.390625 377.457031 599.117188 C 377.492188 598.679688 378.265625 598.71875 378.511719 598.414062 C 378.375 598.316406 377.917969 598.191406 377.875 598.417969 C 377.636719 598.28125 377.640625 598.058594 377.875 597.933594 C 377.496094 597.898438 377.617188 598.179688 377.238281 598.144531 C 377.191406 598 377.308594 597.960938 377.34375 597.867188 C 377.003906 597.828125 377.015625 598 376.8125 597.871094 C 376.785156 597.4375 376.839844 597.058594 377.230469 596.894531 C 375.097656 596.453125 373.371094 595.324219 371.589844 594.4375 C 371.636719 594.007812 372.175781 593.894531 372.21875 593.460938 C 373.515625 593.207031 374.351562 593.078125 375.925781 593.015625 C 376.179688 592.878906 375.730469 592.628906 376.027344 592.460938 C 376.472656 592.523438 377.097656 592.503906 377.40625 592.171875 C 377.015625 592.070312 376.824219 592.152344 376.34375 592.039062 C 376.414062 591.878906 376.695312 591.851562 376.765625 591.6875 C 376.09375 591.292969 377.164062 590.671875 376.753906 590.230469 C 376.933594 590.070312 377.351562 590.339844 377.710938 590.292969 C 377.152344 590.078125 378.277344 590.167969 378.449219 590.007812 C 378.40625 589.863281 377.566406 590.164062 377.8125 589.875 C 376.753906 589.984375 377.066406 589.828125 376.222656 589.886719 C 376.351562 588.832031 377.984375 588.421875 379.707031 587.917969 C 379.464844 587.707031 379.066406 587.304688 379.277344 587.015625 C 379.132812 586.882812 378.683594 587.136719 378.429688 587.160156 C 378.429688 586.953125 378.703125 586.921875 378.746094 586.742188 C 378.492188 586.574219 378.546875 586.847656 378.214844 586.8125 C 378.527344 586.40625 379.101562 586.539062 379.589844 586.320312 C 379.109375 586.054688 378.605469 586.308594 378 586.332031 C 378.042969 586.21875 378.332031 586.269531 378.210938 586.050781 C 377.910156 586.042969 378.003906 586.289062 377.574219 586.195312 C 377.523438 585.976562 377.898438 586.035156 377.785156 585.777344 C 377.238281 585.859375 376.570312 585.925781 376.085938 585.859375 C 376.085938 585.601562 376.457031 585.589844 376.613281 585.4375 C 376.261719 585.324219 376.015625 585.511719 375.554688 585.515625 C 375.511719 585.210938 375.511719 584.886719 376.292969 584.816406 C 376.257812 584.652344 376.308594 584.546875 376.398438 584.464844 C 375.953125 584.269531 375.757812 584.390625 374.804688 584.339844 C 374.636719 584.027344 375.242188 583.792969 375.117188 583.570312 C 374.824219 583.066406 374.234375 583.160156 373.414062 583.167969 C 373.753906 582.886719 373.59375 582.707031 373.9375 582.46875 C 373.410156 582.261719 373.800781 582.003906 373.824219 581.566406 C 374.015625 581.558594 374.050781 581.648438 374.25 581.632812 C 374.492188 580.890625 376.347656 581.1875 376.574219 580.4375 C 376.085938 580.296875 376.386719 579.628906 375.929688 579.46875 C 376.523438 578.558594 375.988281 576.921875 377.925781 576.882812 C 377.8125 576.582031 377.46875 576.441406 376.863281 576.472656 C 376.960938 576.152344 376.636719 576.109375 376.226562 576.128906 C 376.394531 575.777344 376.457031 575.75 376.007812 575.574219 C 376.488281 574.964844 376.363281 574.347656 376.839844 573.484375 C 381.222656 573.726562 387.300781 573.714844 391.164062 573.933594 C 391.265625 573.933594 391.246094 573.847656 391.269531 573.796875 C 392.109375 574.179688 393.40625 573.953125 394.234375 573.703125 C 394.179688 573.761719 394.128906 573.816406 394.132812 573.914062 C 394.59375 573.957031 394.730469 573.792969 395.191406 573.835938 C 396.105469 573.984375 399.484375 573.546875 401.65625 573.511719 C 404.042969 573.46875 406.527344 573.144531 407.699219 572.839844 C 408.078125 573.4375 409.292969 573.207031 410.5625 573.167969 C 410.886719 573.136719 410.746094 573.417969 410.988281 573.441406 C 411.640625 573.132812 413.527344 573.609375 414.277344 573.210938 C 414.339844 573.027344 414.230469 572.960938 413.957031 573 C 414.707031 572.757812 415.652344 573.027344 416.5 572.84375 C 416.429688 572.773438 416.257812 572.773438 416.289062 572.636719 C 417.738281 572.714844 419.277344 572.941406 420.214844 573.300781 C 420.730469 573.160156 421.050781 573.375 421.492188 573.433594 C 422.75 573.597656 424.65625 573.277344 426.15625 573.257812 C 430.78125 573.203125 435.324219 573.582031 439.625 573.296875 C 439.695312 573.367188 439.871094 573.367188 439.839844 573.503906 C 443.195312 573.453125 445.871094 573.203125 449.167969 573.226562 C 449.199219 573.042969 448.945312 573.050781 448.742188 573.023438 C 449.585938 572.949219 450.378906 573.207031 451.078125 573.351562 C 451.8125 572.867188 452.382812 573.417969 453.410156 573.40625 C 453.472656 573.558594 453.210938 573.503906 453.199219 573.617188 C 456.652344 573.855469 459.734375 572.773438 463.273438 573.332031 C 463.410156 573.210938 463.621094 573.140625 463.90625 573.121094 C 463.808594 573.5625 462.828125 573.4375 462.320312 573.617188 C 463.945312 573.628906 465.90625 573.402344 467.835938 573.785156 C 468.507812 573.132812 470.425781 573.527344 471.96875 573.335938 C 472 573.449219 471.867188 573.457031 471.863281 573.546875 C 472.363281 573.539062 472.667969 573.664062 473.136719 573.675781 C 473.144531 573.441406 472.742188 573.472656 472.394531 573.472656 C 473.238281 573.128906 474.425781 573.722656 474.828125 573.039062 C 475.402344 573.117188 475.789062 573.117188 476.101562 572.890625 C 476.132812 573 476.003906 573.011719 475.996094 573.101562 C 478.933594 573.484375 482.273438 573.4375 486.074219 573.441406 C 486.023438 573.171875 485.34375 573.324219 485.117188 573.171875 C 488.71875 572.824219 492.78125 573.851562 496.464844 573.085938 C 495.9375 572.871094 494.746094 572.914062 494.339844 572.828125 C 494.121094 572.785156 493.644531 572.917969 493.597656 572.761719 C 494.808594 572.789062 495.226562 572.582031 496.25 572.601562 C 496.414062 572.523438 496.46875 572.375 496.777344 572.390625 C 496.546875 572.539062 496.832031 572.589844 496.78125 572.808594 C 497.238281 572.875 497.367188 572.726562 497.628906 572.664062 C 498.210938 572.96875 498.746094 572.847656 499.433594 572.648438 C 503.113281 573.324219 507.8125 572.730469 511.949219 572.972656 C 510.949219 573.316406 509.464844 572.96875 508.558594 573.414062 C 508.742188 573.59375 509.609375 573.320312 509.410156 573.757812 C 509.863281 573.796875 509.839844 573.527344 510.253906 573.542969 C 510.390625 573.632812 510.394531 573.796875 510.257812 573.890625 C 511.121094 573.722656 512.71875 573.753906 513.757812 574.144531 C 513.441406 574.144531 513.125 574.148438 512.804688 574.148438 C 515.007812 574.316406 518.414062 574.71875 520.972656 574.644531 C 521.207031 575 521.425781 574.65625 522.25 574.84375 Z M 445.992188 573.667969 C 446.515625 573.632812 447.070312 573.714844 446.628906 573.941406 C 447.058594 573.964844 447.171875 573.785156 447.476562 573.726562 C 447.027344 573.726562 447.222656 573.570312 447.367188 573.449219 C 446.957031 573.703125 446.054688 573.210938 445.992188 573.667969 Z M 497.527344 573.21875 C 497.394531 573.203125 497.3125 573.109375 497.316406 573.289062 C 497.859375 573.277344 498.378906 573.210938 498.695312 573.277344 C 498.664062 572.984375 497.777344 573.035156 497.527344 573.21875 Z M 468.269531 574.960938 C 468.167969 575.214844 468.863281 575.105469 468.800781 574.957031 C 468.539062 574.953125 468.472656 574.832031 468.269531 574.960938 Z M 469.015625 575.097656 C 469.371094 575.050781 470 575.179688 470.179688 575.019531 C 469.613281 574.984375 469.378906 574.792969 469.015625 575.097656 Z M 453.238281 578.410156 C 453.539062 578.617188 454.140625 578.359375 454.195312 578.609375 C 454.507812 578.613281 454.730469 578.402344 454.9375 578.535156 C 454.933594 578.445312 454.933594 578.351562 454.933594 578.257812 C 454.40625 578.332031 453.683594 578.28125 453.238281 578.410156 Z M 502.894531 581.792969 C 503.214844 581.722656 503.667969 581.738281 503.742188 581.511719 C 503.328125 581.519531 502.808594 581.464844 502.894531 581.792969 Z M 505.230469 582.261719 C 506.699219 582.125 504.597656 582.0625 504.382812 582.269531 C 504.738281 582.253906 505.011719 582.285156 505.230469 582.261719 Z M 409.074219 586.796875 C 409.160156 586.851562 409.722656 586.863281 409.710938 586.652344 C 409.429688 586.65625 409.085938 586.617188 409.074219 586.796875 Z M 440.707031 590.589844 C 440.84375 590.332031 440.074219 590.320312 439.964844 590.457031 C 440.378906 590.390625 440.234375 590.699219 440.707031 590.589844 Z M 442.402344 590.578125 C 443.347656 590.699219 444.132812 590.574219 445.265625 590.625 C 444.6875 590.527344 442.992188 590.3125 442.402344 590.578125 Z M 447.917969 590.609375 C 447.753906 590.601562 447.550781 590.621094 447.601562 590.472656 C 446.957031 590.617188 445.980469 590.460938 445.480469 590.488281 C 446.644531 590.714844 447.199219 590.765625 447.917969 590.609375 Z M 436.785156 590.96875 C 436.0625 591.082031 435.046875 590.789062 434.769531 591.050781 C 436.015625 591.238281 438.761719 591.3125 440.179688 591.011719 C 439.058594 590.941406 438.371094 590.777344 437.316406 590.894531 C 438.140625 591.148438 436.578125 590.808594 436.574219 590.832031 C 436.691406 590.84375 436.738281 590.90625 436.785156 590.96875 Z M 448.664062 590.878906 C 448.910156 590.878906 449.15625 590.875 449.40625 590.875 C 449.449219 590.59375 448.683594 590.765625 448.664062 590.878906 Z M 440.5 591.007812 C 440.433594 591.015625 440.375 591.023438 440.390625 591.078125 C 440.859375 591.113281 442.300781 591.023438 441.132812 591.003906 C 440.914062 590.855469 440.792969 591.070312 440.601562 590.941406 C 440.597656 590.898438 440.585938 590.859375 440.496094 590.871094 C 440.496094 590.917969 440.496094 590.964844 440.5 591.007812 Z M 434.457031 591.472656 C 434.351562 591.609375 434.0625 591.632812 433.929688 591.753906 C 436.238281 591.859375 440.175781 591.765625 442.835938 591.6875 C 440.480469 591.3125 437.242188 591.710938 434.457031 591.472656 Z M 510.625 594.242188 C 511.714844 594.683594 513.292969 594.84375 514.65625 594.769531 C 513.265625 594.707031 511.738281 594.027344 510.625 594.242188 Z M 505.960938 594.972656 C 506.304688 595.179688 507.203125 595.136719 507.554688 594.960938 C 507.523438 595.121094 507.578125 595.222656 507.765625 595.238281 C 507.949219 595.09375 507.6875 595.101562 507.871094 594.957031 C 507.285156 594.683594 506.660156 594.828125 505.960938 594.972656 Z M 504.054688 595.054688 C 504.480469 595.03125 504.644531 595.175781 505.113281 595.117188 C 505.078125 594.761719 504.0625 594.910156 504.054688 595.054688 Z M 513.285156 595.613281 C 513.628906 595.671875 513.945312 595.660156 514.558594 595.671875 C 514.546875 595.351562 513.640625 595.554688 513.285156 595.613281 Z M 418.816406 598.8125 C 418.550781 598.933594 417.785156 598.6875 417.4375 598.894531 C 417.671875 599.101562 418.660156 599.0625 418.816406 598.8125 Z M 464.949219 599.167969 C 464.5625 599.222656 464.359375 599 464.101562 599.175781 C 464.496094 599.488281 465.378906 599.390625 466.117188 599.367188 C 467.308594 599.332031 468.433594 599.15625 469.617188 599.273438 C 468.488281 598.890625 465.832031 599.105469 464.949219 599.167969 Z M 471.3125 599.1875 C 471.78125 599.273438 472.875 599.195312 473.539062 599.035156 C 472.761719 599.117188 471.421875 598.773438 471.3125 599.1875 Z M 477.78125 599.003906 C 477.757812 599.3125 476.746094 598.980469 476.722656 599.289062 C 477.253906 599.398438 477.632812 599.304688 478.101562 599.210938 C 478.15625 599.390625 478.1875 599.441406 478.425781 599.621094 C 480.628906 599.011719 482.769531 599.984375 484.890625 599.367188 C 482.554688 599.066406 480.113281 599.402344 477.78125 599.003906 Z M 458.269531 599.425781 C 457.730469 599.425781 457.046875 599.128906 456.789062 599.574219 C 458.695312 599.6875 460.59375 599.632812 462.511719 599.253906 C 461.132812 599.25 459.605469 599.421875 458.269531 599.425781 Z M 458.269531 599.425781 " fill-opacity="1" fill-rule="evenodd"/></g><g clip-path="url(#883010327d)"><g clip-path="url(#a349b7571d)"><path fill="#fdc221" d="M 406.675781 555.648438 L 432.945312 555.648438 L 432.945312 608.898438 L 406.675781 608.898438 Z M 406.675781 555.648438 " fill-opacity="1" fill-rule="nonzero"/></g></g><g clip-path="url(#cfad6ca210)"><g clip-path="url(#eaa76ff8cb)"><path fill="#fdc221" d="M 405.972656 555.648438 L 431.359375 555.648438 L 431.359375 584.902344 L 405.972656 584.902344 Z M 405.972656 555.648438 " fill-opacity="1" fill-rule="nonzero"/></g></g></svg>